#N canvas 131 262 640 310 10;
#X obj 26 61 s joint;
#X floatatom 152 134 5 0 0 0 - - -;
#X obj 25 31 routeOSC /joint;
#X obj 294 30 route /lost_user;
#X floatatom 189 134 5 0 0 0 - - -;
#X obj 294 57 s lost;
#X floatatom 116 134 5 0 0 0 - - -;
#X text 114 117 user1;
#X text 149 117 user2;
#X text 188 116 lost;
#X obj 18 -66 cnv 15 120 20 empty empty empty 20 12 0 14 -228856 -66577
0;
#X text 20 -66 osc routing;
#N canvas 284 304 797 239 route_joint 0;
#X obj -18 -51 r joint;
#X obj -18 -7 route l_shoulder l_elbow l_hand l_hip l_knee l_foot head
neck torso r_shoulder r_elbow r_hand r_hip r_knee r_foot;
#X obj -18 28 s l_shoulder;
#X obj 4 48 s l_elbow;
#X obj 26 68 s l_hand;
#X obj 49 88 s l_hip;
#X obj 70 28 s l_knee;
#X obj 94 48 s l_foot;
#X obj 115 67 s head;
#X obj 137 87 s neck;
#X obj 159 27 s torso;
#X obj 181 47 s r_shoulder;
#X obj 204 66 s r_elbow;
#X obj 226 86 s r_hand;
#X obj 250 106 s r_hip;
#X obj 270 29 s r_knee;
#X obj 293 50 s r_foot;
#X obj 369 -10 route l_shoulder l_elbow l_hand l_hip l_knee l_foot
head neck torso r_shoulder r_elbow r_hand r_hip r_knee r_foot;
#X obj 369 -54 r joint2;
#X obj 369 25 s l_shoulder2;
#X obj 457 25 s l_knee2;
#X obj 546 24 s torso2;
#X obj 657 26 s r_knee2;
#X obj 680 48 s r_foot2;
#X obj 568 44 s r_shoulder2;
#X obj 591 63 s r_elbow2;
#X obj 613 83 s r_hand2;
#X obj 637 103 s r_hip2;
#X obj 524 84 s neck2;
#X obj 502 64 s head2;
#X obj 481 45 s l_foot2;
#X obj 391 45 s l_elbow2;
#X obj 413 65 s l_hand2;
#X obj 436 85 s l_hip2;
#X obj -18 -94 cnv 15 120 20 empty empty empty 20 12 0 14 -228856 -66577
0;
#X text -11 -93 user 1;
#X obj 368 -94 cnv 15 120 20 empty empty empty 20 12 0 14 -228856 -66577
0;
#X text 375 -93 user 2;
#X connect 0 0 1 0;
#X connect 1 0 2 0;
#X connect 1 1 3 0;
#X connect 1 2 4 0;
#X connect 1 3 5 0;
#X connect 1 4 6 0;
#X connect 1 5 7 0;
#X connect 1 6 8 0;
#X connect 1 7 9 0;
#X connect 1 8 10 0;
#X connect 1 9 11 0;
#X connect 1 10 12 0;
#X connect 1 11 13 0;
#X connect 1 12 14 0;
#X connect 1 13 15 0;
#X connect 1 14 16 0;
#X connect 17 0 19 0;
#X connect 17 1 31 0;
#X connect 17 2 32 0;
#X connect 17 3 33 0;
#X connect 17 4 20 0;
#X connect 17 5 30 0;
#X connect 17 6 29 0;
#X connect 17 7 28 0;
#X connect 17 8 21 0;
#X connect 17 9 24 0;
#X connect 17 10 25 0;
#X connect 17 11 26 0;
#X connect 17 12 27 0;
#X connect 17 13 22 0;
#X connect 17 14 23 0;
#X connect 18 0 17 0;
#X restore 18 176 pd route_joint;
#X obj 154 -45 udpreceive 7110;
#X obj 154 -19 unpackOSC;
#X obj 154 30 route /new_user;
#X obj 166 58 routeOSC /joint;
#X obj 166 83 s joint2;
#X obj 430 30 route /new_skel;
#X floatatom 226 134 5 0 0 0 - - -;
#X text 217 116 new skel;
#X text 255 -46 from OSCeleton;
#X connect 2 0 0 0;
#X connect 2 0 6 0;
#X connect 3 0 4 0;
#X connect 3 0 5 0;
#X connect 13 0 14 0;
#X connect 14 0 2 0;
#X connect 14 0 3 0;
#X connect 14 0 15 0;
#X connect 14 0 18 0;
#X connect 15 0 1 0;
#X connect 16 0 17 0;
#X connect 18 0 19 0;
