#N canvas 0 22 616 429 10;
#X obj 120 145 grid grid1 200 0 100 100 0 30 1 1 1 10 10 -281.678 -65.9739
;
#X floatatom 122 -38 5 0 0 0 - - -;
#X floatatom 166 -37 5 0 0 0 - - -;
#X obj 121 18 pack f f;
#X msg 121 38 goto \$1 \$2;
#X msg 122 -68 bang;
#X text 108 -37 X;
#X text 203 -35 Y;
#X msg 120 64 color 100 100 100;
#X obj 122 -107 autoscale;
#X obj 166 -59 autoscale;
#X obj 330 145 grid grid1 200 0 70 100 0 30 1 1 1 10 10 -71.6777 -42.5989
;
#X floatatom 330 -8 5 0 0 0 - - -;
#X floatatom 375 -8 5 0 0 0 - - -;
#X obj 330 39 pack f f;
#X msg 330 59 goto \$1 \$2;
#X msg 330 -32 bang;
#X msg 330 81 color 100 100 100;
#X obj 330 -84 autoscale;
#X obj 375 -30 autoscale;
#X text 316 -7 Z;
#X text 209 119 UP;
#X text 415 119 FRONT;
#X obj 250 -2 loadbang;
#X msg 120 87 bang;
#X text 413 73 Y;
#X obj 330 -106 r torsox;
#X obj 375 -54 r torsoy;
#X obj 122 -130 r torsox;
#X obj 166 -81 r torsoz;
#X obj 121 -8 * 100;
#X obj 166 -9 * 100;
#X obj 330 14 * 100;
#X obj 375 15 * 100;
#X obj 517 117 bng 15 250 50 0 empty empty empty 17 7 0 10 -262144
-1 -1;
#X connect 1 0 30 0;
#X connect 2 0 5 0;
#X connect 2 0 31 0;
#X connect 3 0 4 0;
#X connect 4 0 0 0;
#X connect 5 0 1 0;
#X connect 8 0 0 0;
#X connect 9 0 1 0;
#X connect 10 0 2 0;
#X connect 12 0 32 0;
#X connect 13 0 16 0;
#X connect 13 0 33 0;
#X connect 14 0 15 0;
#X connect 15 0 11 0;
#X connect 16 0 12 0;
#X connect 17 0 11 0;
#X connect 18 0 12 0;
#X connect 19 0 13 0;
#X connect 23 0 8 0;
#X connect 23 0 17 0;
#X connect 24 0 0 0;
#X connect 24 0 11 0;
#X connect 26 0 18 0;
#X connect 27 0 19 0;
#X connect 28 0 9 0;
#X connect 29 0 10 0;
#X connect 30 0 3 0;
#X connect 31 0 3 1;
#X connect 32 0 14 0;
#X connect 33 0 14 1;
#X connect 34 0 24 0;
