#N canvas 41 22 1303 791 10;
#X obj 650 204 nbx 6 14 1 1e+37 0 1 empty empty clocklen -50 8 0 10
-262144 -1 -1 9993 256;
#X obj 734 -27 loadbang;
#X obj 841 105 s \$0rfmdroneseed;
#X obj 802 106 t b f;
#X obj 518 205 nbx 7 14 1 1e+37 0 1 empty empty seed -27 8 0 10 -262144
-1 -1 45269 256;
#X obj 701 -52 inlet;
#X text 707 -69 reset;
#X obj 701 -29 t b;
#X msg 452 72 bang;
#X obj 489 73 t b f;
#X obj 489 -62 inlet;
#X text 535 -62 bang to change;
#X obj 426 185 tgl 15 1 empty empty ext 17 7 0 10 -262144 -1 -1 0 1
;
#X obj 507 148 t b;
#X obj 489 101 metro;
#X obj 516 3 == 0;
#X obj 457 -38 != 0;
#X obj 489 125 spigot;
#X obj 489 -40 spigot;
#X obj 366 681 outlet~;
#X obj 519 679 outlet~;
#N canvas 373 100 648 365 mix_signals_1_2_3_4_5_6 0;
#X obj 216 314 outlet~;
#X obj 270 314 outlet~;
#X obj 216 277 *~;
#X obj 270 277 *~;
#X obj 598 67 t f f;
#X obj 598 91 *;
#N canvas 0 22 450 300 pan1 0;
#X obj 120 15 inlet;
#X obj 297 51 inlet~;
#X obj 256 225 outlet~;
#X obj 336 218 outlet~;
#X obj 251 149 *~;
#X obj 323 154 *~;
#X obj 276 122 + 1;
#X obj 335 113 * -1;
#X obj 208 75 * -1;
#X obj 160 42 clip 0 1;
#X connect 0 0 9 0;
#X connect 1 0 4 0;
#X connect 1 0 5 1;
#X connect 4 0 2 0;
#X connect 5 0 3 0;
#X connect 6 0 4 1;
#X connect 7 0 5 0;
#X connect 8 0 6 0;
#X connect 8 0 7 0;
#X connect 9 0 8 0;
#X restore -2 123 pd pan1;
#N canvas 0 22 450 300 pan2 0;
#X obj 120 15 inlet;
#X obj 297 51 inlet~;
#X obj 256 225 outlet~;
#X obj 336 218 outlet~;
#X obj 251 149 *~;
#X obj 323 154 *~;
#X obj 276 122 + 1;
#X obj 335 113 * -1;
#X obj 208 75 * -1;
#X obj 160 42 clip 0 1;
#X connect 0 0 9 0;
#X connect 1 0 4 0;
#X connect 1 0 5 1;
#X connect 4 0 2 0;
#X connect 5 0 3 0;
#X connect 6 0 4 1;
#X connect 7 0 5 0;
#X connect 8 0 6 0;
#X connect 8 0 7 0;
#X connect 9 0 8 0;
#X restore 93 120 pd pan2;
#N canvas 0 22 450 300 pan3 0;
#X obj 120 15 inlet;
#X obj 297 51 inlet~;
#X obj 256 225 outlet~;
#X obj 336 218 outlet~;
#X obj 251 149 *~;
#X obj 323 154 *~;
#X obj 276 122 + 1;
#X obj 335 113 * -1;
#X obj 208 75 * -1;
#X obj 160 42 clip 0 1;
#X connect 0 0 9 0;
#X connect 1 0 4 0;
#X connect 1 0 5 1;
#X connect 4 0 2 0;
#X connect 5 0 3 0;
#X connect 6 0 4 1;
#X connect 7 0 5 0;
#X connect 8 0 6 0;
#X connect 8 0 7 0;
#X connect 9 0 8 0;
#X restore 181 120 pd pan3;
#N canvas 0 22 450 300 pan4 0;
#X obj 120 15 inlet;
#X obj 297 51 inlet~;
#X obj 256 225 outlet~;
#X obj 336 218 outlet~;
#X obj 251 149 *~;
#X obj 323 154 *~;
#X obj 276 122 + 1;
#X obj 335 113 * -1;
#X obj 208 75 * -1;
#X obj 160 42 clip 0 1;
#X connect 0 0 9 0;
#X connect 1 0 4 0;
#X connect 1 0 5 1;
#X connect 4 0 2 0;
#X connect 5 0 3 0;
#X connect 6 0 4 1;
#X connect 7 0 5 0;
#X connect 8 0 6 0;
#X connect 8 0 7 0;
#X connect 9 0 8 0;
#X restore 273 122 pd pan4;
#N canvas 0 22 450 300 pan5 0;
#X obj 120 15 inlet;
#X obj 297 51 inlet~;
#X obj 256 225 outlet~;
#X obj 336 218 outlet~;
#X obj 251 149 *~;
#X obj 323 154 *~;
#X obj 276 122 + 1;
#X obj 335 113 * -1;
#X obj 208 75 * -1;
#X obj 160 42 clip 0 1;
#X connect 0 0 9 0;
#X connect 1 0 4 0;
#X connect 1 0 5 1;
#X connect 4 0 2 0;
#X connect 5 0 3 0;
#X connect 6 0 4 1;
#X connect 7 0 5 0;
#X connect 8 0 6 0;
#X connect 8 0 7 0;
#X connect 9 0 8 0;
#X restore 369 123 pd pan5;
#N canvas 0 22 450 300 pan6 0;
#X obj 120 15 inlet;
#X obj 297 51 inlet~;
#X obj 256 225 outlet~;
#X obj 336 218 outlet~;
#X obj 251 149 *~;
#X obj 323 154 *~;
#X obj 276 122 + 1;
#X obj 335 113 * -1;
#X obj 208 75 * -1;
#X obj 160 42 clip 0 1;
#X connect 0 0 9 0;
#X connect 1 0 4 0;
#X connect 1 0 5 1;
#X connect 4 0 2 0;
#X connect 5 0 3 0;
#X connect 6 0 4 1;
#X connect 7 0 5 0;
#X connect 8 0 6 0;
#X connect 8 0 7 0;
#X connect 9 0 8 0;
#X restore 465 121 pd pan6;
#X obj -4 56 r d_pan_1;
#X obj 93 55 r d_pan_2;
#X obj 179 54 r d_pan_3;
#X obj 270 55 r d_pan_4;
#X obj 370 52 r d_pan_5;
#X obj 466 46 r d_pan_6;
#X obj 37 82 inlet~;
#X obj 127 80 inlet~;
#X obj 218 78 inlet~;
#X obj 312 77 inlet~;
#X obj 407 77 inlet~;
#X obj 507 72 inlet~;
#X obj 600 43 inlet;
#X connect 2 0 0 0;
#X connect 3 0 1 0;
#X connect 4 0 5 0;
#X connect 4 1 5 1;
#X connect 5 0 2 1;
#X connect 5 0 3 1;
#X connect 6 0 2 0;
#X connect 6 1 3 0;
#X connect 7 0 2 0;
#X connect 7 1 3 0;
#X connect 8 0 2 0;
#X connect 8 1 3 0;
#X connect 9 0 2 0;
#X connect 9 1 3 0;
#X connect 10 0 2 0;
#X connect 10 1 3 0;
#X connect 11 0 2 0;
#X connect 11 1 3 0;
#X connect 12 0 6 0;
#X connect 13 0 7 0;
#X connect 14 0 8 0;
#X connect 15 0 9 0;
#X connect 16 0 10 0;
#X connect 17 0 11 0;
#X connect 18 0 6 1;
#X connect 19 0 7 1;
#X connect 20 0 8 1;
#X connect 21 0 9 1;
#X connect 22 0 10 1;
#X connect 23 0 11 1;
#X connect 24 0 4 0;
#X restore 366 654 pd mix_signals_1_2_3_4_5_6;
#N canvas 29 104 723 642 rnd_fm_osc1 0;
#X obj 96 55 inlet;
#X obj 296 4 inlet;
#X obj 184 344 line~;
#X obj 168 366 *~;
#X obj 170 426 *~;
#X obj 168 212 +~;
#X obj 184 321 pack 0 1700;
#X obj 162 539 *~;
#X obj 185 491 random 8;
#N canvas 99 258 450 300 am1 0;
#X obj 91 228 outlet~;
#X obj 92 194 osc~;
#X obj 99 165 line;
#X obj 99 142 pack 0 850;
#X obj 99 99 inlet;
#X obj 209 101 inlet;
#X text 101 86 freq;
#X text 213 84 clocklen/2;
#X msg 208 148 1;
#X connect 1 0 0 0;
#X connect 2 0 1 0;
#X connect 3 0 2 0;
#X connect 4 0 3 0;
#X connect 5 0 3 1;
#X connect 5 0 8 0;
#X connect 8 0 1 1;
#X restore 183 517 pd am1;
#X obj 156 49 inlet;
#X text 95 37 freq;
#X text 161 32 modfreq;
#X obj 162 566 outlet~;
#X obj 224 46 inlet;
#X text 224 32 clocklen;
#X obj 351 227 / 2;
#X obj 188 293 random 2;
#N canvas 395 83 876 445 vol_level_mod 0;
#X obj 61 307 outlet;
#X msg 65 261 \$1 400;
#X obj 65 284 line;
#X obj 67 237 clip 0.125 0.3;
#X obj 74 173 metro 300;
#X obj 73 194 random 1000;
#X obj 71 213 / 1000;
#X obj 79 144 inlet;
#X obj 170 106 r \$0rfmdroneseed;
#X msg 171 150 seed \$1;
#X obj 171 127 + 3;
#X connect 1 0 2 0;
#X connect 2 0 0 0;
#X connect 3 0 1 0;
#X connect 4 0 5 0;
#X connect 5 0 6 0;
#X connect 6 0 3 0;
#X connect 7 0 4 0;
#X connect 8 0 10 0;
#X connect 9 0 5 0;
#X connect 10 0 9 0;
#X restore 234 390 pd vol_level_mod;
#N canvas 600 90 680 300 freqmod1 0;
#X obj 82 219 outlet~;
#X obj 70 78 osc~;
#X obj 78 187 *~;
#X obj 76 136 *~;
#X obj 213 150 noise~;
#X obj 253 3 inlet;
#X obj 133 76 inlet;
#X msg 225 54 bang;
#X obj 320 43 int;
#X obj 355 37 + 1;
#X obj 349 59 mod 2;
#X obj 76 162 +~;
#X obj 67 48 inlet;
#X text 72 32 freq;
#X text 125 59 fm depth;
#X text 254 -11 metro bang;
#X obj 279 90 tabosc4~ \$0fmnoise1;
#X obj 272 118 table \$0fmnoise1 259;
#X obj 191 190 tabwrite~ \$0fmnoise1;
#X connect 1 0 3 0;
#X connect 2 0 0 0;
#X connect 3 0 11 0;
#X connect 4 0 18 0;
#X connect 5 0 7 0;
#X connect 5 0 8 0;
#X connect 6 0 3 1;
#X connect 6 0 2 1;
#X connect 7 0 18 0;
#X connect 8 0 9 0;
#X connect 9 0 10 0;
#X connect 10 0 8 1;
#X connect 10 0 16 0;
#X connect 11 0 2 0;
#X connect 12 0 1 0;
#X connect 16 0 11 1;
#X restore 197 163 pd freqmod1;
#N canvas 11 86 450 300 fmdepthmod 0;
#X obj 170 185 line;
#X obj 176 163 pack 0 10000;
#X obj 176 117 metro 10000;
#X obj 176 139 random 50;
#X obj 159 228 outlet;
#X obj 179 96 inlet;
#X obj 269 33 r \$0rfmdroneseed;
#X obj 270 54 + 1;
#X msg 270 77 seed \$1;
#X connect 0 0 4 0;
#X connect 1 0 0 0;
#X connect 2 0 3 0;
#X connect 3 0 1 0;
#X connect 5 0 2 0;
#X connect 6 0 7 0;
#X connect 7 0 8 0;
#X connect 8 0 3 0;
#X restore 294 112 pd fmdepthmod;
#X obj 418 43 loadbang;
#X msg 403 70 bang;
#X text 286 -12 metro bang;
#X obj 167 236 osc~;
#X obj 122 138 mtof;
#X obj 239 136 *;
#X obj 366 9 inlet;
#X obj 274 186 r \$0rfmdroneseed;
#X msg 275 230 seed \$1;
#X obj 275 207 + 2;
#X obj 274 415 r \$0rfmdroneseed;
#X msg 275 459 seed \$1;
#X obj 275 436 + 4;
#X connect 0 0 25 0;
#X connect 1 0 8 0;
#X connect 1 0 17 0;
#X connect 1 0 19 2;
#X connect 2 0 3 1;
#X connect 3 0 4 0;
#X connect 4 0 7 0;
#X connect 5 0 24 0;
#X connect 6 0 2 0;
#X connect 7 0 13 0;
#X connect 8 0 9 0;
#X connect 9 0 7 1;
#X connect 10 0 19 0;
#X connect 14 0 16 0;
#X connect 16 0 6 1;
#X connect 16 0 9 1;
#X connect 17 0 6 0;
#X connect 18 0 4 1;
#X connect 19 0 5 1;
#X connect 20 0 26 0;
#X connect 21 0 22 0;
#X connect 22 0 20 0;
#X connect 22 0 18 0;
#X connect 24 0 3 0;
#X connect 25 0 5 0;
#X connect 26 0 19 1;
#X connect 27 0 26 1;
#X connect 28 0 30 0;
#X connect 29 0 17 0;
#X connect 30 0 29 0;
#X connect 31 0 33 0;
#X connect 32 0 8 0;
#X connect 33 0 32 0;
#X restore 164 566 pd rnd_fm_osc1;
#N canvas 29 104 723 642 rnd_fm_osc2 0;
#X obj 96 55 inlet;
#X obj 296 4 inlet;
#X obj 184 344 line~;
#X obj 168 366 *~;
#X obj 170 426 *~;
#X obj 168 212 +~;
#X obj 184 321 pack 0 1700;
#X obj 162 539 *~;
#X obj 185 491 random 8;
#N canvas 99 258 450 300 am1 0;
#X obj 91 228 outlet~;
#X obj 92 194 osc~;
#X obj 99 165 line;
#X obj 99 142 pack 0 850;
#X obj 99 99 inlet;
#X obj 209 101 inlet;
#X text 101 86 freq;
#X text 213 84 clocklen/2;
#X msg 208 148 1;
#X connect 1 0 0 0;
#X connect 2 0 1 0;
#X connect 3 0 2 0;
#X connect 4 0 3 0;
#X connect 5 0 3 1;
#X connect 5 0 8 0;
#X connect 8 0 1 1;
#X restore 183 517 pd am1;
#X obj 156 49 inlet;
#X text 95 37 freq;
#X text 161 32 modfreq;
#X obj 162 566 outlet~;
#X obj 224 46 inlet;
#X text 224 32 clocklen;
#X obj 351 227 / 2;
#X obj 188 293 random 2;
#N canvas 395 83 876 445 vol_level_mod 0;
#X obj 61 307 outlet;
#X msg 65 261 \$1 400;
#X obj 65 284 line;
#X obj 67 237 clip 0.125 0.3;
#X obj 74 173 metro 300;
#X obj 73 194 random 1000;
#X obj 71 213 / 1000;
#X obj 79 144 inlet;
#X obj 170 106 r \$0rfmdroneseed;
#X msg 171 150 seed \$1;
#X obj 171 127 + 3;
#X connect 1 0 2 0;
#X connect 2 0 0 0;
#X connect 3 0 1 0;
#X connect 4 0 5 0;
#X connect 5 0 6 0;
#X connect 6 0 3 0;
#X connect 7 0 4 0;
#X connect 8 0 10 0;
#X connect 9 0 5 0;
#X connect 10 0 9 0;
#X restore 234 390 pd vol_level_mod;
#N canvas 600 90 680 300 freqmod1 0;
#X obj 82 219 outlet~;
#X obj 70 78 osc~;
#X obj 78 187 *~;
#X obj 76 136 *~;
#X obj 213 150 noise~;
#X obj 253 3 inlet;
#X obj 133 76 inlet;
#X msg 225 54 bang;
#X obj 320 43 int;
#X obj 355 37 + 1;
#X obj 349 59 mod 2;
#X obj 76 162 +~;
#X obj 67 48 inlet;
#X text 72 32 freq;
#X text 125 59 fm depth;
#X text 254 -11 metro bang;
#X obj 191 190 tabwrite~ \$0fmnoise1;
#X obj 272 118 table \$0fmnoise2 259;
#X obj 279 90 tabosc4~ \$0fmnoise2;
#X connect 1 0 3 0;
#X connect 2 0 0 0;
#X connect 3 0 11 0;
#X connect 4 0 16 0;
#X connect 5 0 7 0;
#X connect 5 0 8 0;
#X connect 6 0 3 1;
#X connect 6 0 2 1;
#X connect 7 0 16 0;
#X connect 8 0 9 0;
#X connect 9 0 10 0;
#X connect 10 0 8 1;
#X connect 10 0 18 0;
#X connect 11 0 2 0;
#X connect 12 0 1 0;
#X connect 18 0 11 1;
#X restore 197 163 pd freqmod1;
#N canvas 11 86 450 300 fmdepthmod 0;
#X obj 170 185 line;
#X obj 176 163 pack 0 10000;
#X obj 176 117 metro 10000;
#X obj 176 139 random 50;
#X obj 159 228 outlet;
#X obj 179 96 inlet;
#X obj 269 33 r \$0rfmdroneseed;
#X obj 270 54 + 1;
#X msg 270 77 seed \$1;
#X connect 0 0 4 0;
#X connect 1 0 0 0;
#X connect 2 0 3 0;
#X connect 3 0 1 0;
#X connect 5 0 2 0;
#X connect 6 0 7 0;
#X connect 7 0 8 0;
#X connect 8 0 3 0;
#X restore 294 112 pd fmdepthmod;
#X obj 418 43 loadbang;
#X msg 403 70 bang;
#X text 286 -12 metro bang;
#X obj 167 236 osc~;
#X obj 122 138 mtof;
#X obj 239 136 *;
#X obj 366 9 inlet;
#X obj 274 186 r \$0rfmdroneseed;
#X msg 275 230 seed \$1;
#X obj 275 207 + 2;
#X obj 274 415 r \$0rfmdroneseed;
#X msg 275 459 seed \$1;
#X obj 275 436 + 4;
#X connect 0 0 25 0;
#X connect 1 0 8 0;
#X connect 1 0 17 0;
#X connect 1 0 19 2;
#X connect 2 0 3 1;
#X connect 3 0 4 0;
#X connect 4 0 7 0;
#X connect 5 0 24 0;
#X connect 6 0 2 0;
#X connect 7 0 13 0;
#X connect 8 0 9 0;
#X connect 9 0 7 1;
#X connect 10 0 19 0;
#X connect 14 0 16 0;
#X connect 16 0 6 1;
#X connect 16 0 9 1;
#X connect 17 0 6 0;
#X connect 18 0 4 1;
#X connect 19 0 5 1;
#X connect 20 0 26 0;
#X connect 21 0 22 0;
#X connect 22 0 20 0;
#X connect 22 0 18 0;
#X connect 24 0 3 0;
#X connect 25 0 5 0;
#X connect 26 0 19 1;
#X connect 27 0 26 1;
#X connect 28 0 30 0;
#X connect 29 0 17 0;
#X connect 30 0 29 0;
#X connect 31 0 33 0;
#X connect 32 0 8 0;
#X connect 33 0 32 0;
#X restore 267 567 pd rnd_fm_osc2;
#N canvas 29 102 723 642 rnd_fm_osc3 0;
#X obj 96 55 inlet;
#X obj 296 4 inlet;
#X obj 184 344 line~;
#X obj 168 366 *~;
#X obj 170 426 *~;
#X obj 168 212 +~;
#X obj 184 321 pack 0 1700;
#X obj 162 539 *~;
#X obj 185 491 random 8;
#N canvas 99 258 450 300 am1 0;
#X obj 91 228 outlet~;
#X obj 92 194 osc~;
#X obj 99 165 line;
#X obj 99 142 pack 0 850;
#X obj 99 99 inlet;
#X obj 209 101 inlet;
#X text 101 86 freq;
#X text 213 84 clocklen/2;
#X msg 208 148 1;
#X connect 1 0 0 0;
#X connect 2 0 1 0;
#X connect 3 0 2 0;
#X connect 4 0 3 0;
#X connect 5 0 3 1;
#X connect 5 0 8 0;
#X connect 8 0 1 1;
#X restore 183 517 pd am1;
#X obj 156 49 inlet;
#X text 95 37 freq;
#X text 161 32 modfreq;
#X obj 162 566 outlet~;
#X obj 224 46 inlet;
#X text 224 32 clocklen;
#X obj 351 227 / 2;
#X obj 188 293 random 2;
#N canvas 395 83 876 445 vol_level_mod 0;
#X obj 61 307 outlet;
#X msg 65 261 \$1 400;
#X obj 65 284 line;
#X obj 67 237 clip 0.125 0.3;
#X obj 74 173 metro 300;
#X obj 73 194 random 1000;
#X obj 71 213 / 1000;
#X obj 79 144 inlet;
#X obj 170 106 r \$0rfmdroneseed;
#X msg 171 150 seed \$1;
#X obj 171 127 + 3;
#X connect 1 0 2 0;
#X connect 2 0 0 0;
#X connect 3 0 1 0;
#X connect 4 0 5 0;
#X connect 5 0 6 0;
#X connect 6 0 3 0;
#X connect 7 0 4 0;
#X connect 8 0 10 0;
#X connect 9 0 5 0;
#X connect 10 0 9 0;
#X restore 234 390 pd vol_level_mod;
#N canvas 600 90 680 300 freqmod1 0;
#X obj 82 219 outlet~;
#X obj 70 78 osc~;
#X obj 78 187 *~;
#X obj 76 136 *~;
#X obj 213 150 noise~;
#X obj 253 3 inlet;
#X obj 133 76 inlet;
#X msg 225 54 bang;
#X obj 320 43 int;
#X obj 355 37 + 1;
#X obj 349 59 mod 2;
#X obj 76 162 +~;
#X obj 67 48 inlet;
#X text 72 32 freq;
#X text 125 59 fm depth;
#X text 254 -11 metro bang;
#X obj 191 190 tabwrite~ \$0fmnoise1;
#X obj 279 90 tabosc4~ \$0fmnoise3;
#X obj 272 118 table \$0fmnoise3 259;
#X connect 1 0 3 0;
#X connect 2 0 0 0;
#X connect 3 0 11 0;
#X connect 4 0 16 0;
#X connect 5 0 7 0;
#X connect 5 0 8 0;
#X connect 6 0 3 1;
#X connect 6 0 2 1;
#X connect 7 0 16 0;
#X connect 8 0 9 0;
#X connect 9 0 10 0;
#X connect 10 0 8 1;
#X connect 10 0 17 0;
#X connect 11 0 2 0;
#X connect 12 0 1 0;
#X connect 17 0 11 1;
#X restore 197 163 pd freqmod1;
#N canvas 11 86 450 300 fmdepthmod 0;
#X obj 170 185 line;
#X obj 176 163 pack 0 10000;
#X obj 176 117 metro 10000;
#X obj 176 139 random 50;
#X obj 159 228 outlet;
#X obj 179 96 inlet;
#X obj 269 33 r \$0rfmdroneseed;
#X obj 270 54 + 1;
#X msg 270 77 seed \$1;
#X connect 0 0 4 0;
#X connect 1 0 0 0;
#X connect 2 0 3 0;
#X connect 3 0 1 0;
#X connect 5 0 2 0;
#X connect 6 0 7 0;
#X connect 7 0 8 0;
#X connect 8 0 3 0;
#X restore 294 112 pd fmdepthmod;
#X obj 418 43 loadbang;
#X msg 403 70 bang;
#X text 286 -12 metro bang;
#X obj 167 236 osc~;
#X obj 122 138 mtof;
#X obj 239 136 *;
#X obj 366 9 inlet;
#X obj 274 186 r \$0rfmdroneseed;
#X msg 275 230 seed \$1;
#X obj 275 207 + 2;
#X obj 274 415 r \$0rfmdroneseed;
#X msg 275 459 seed \$1;
#X obj 275 436 + 4;
#X connect 0 0 25 0;
#X connect 1 0 8 0;
#X connect 1 0 17 0;
#X connect 1 0 19 2;
#X connect 2 0 3 1;
#X connect 3 0 4 0;
#X connect 4 0 7 0;
#X connect 5 0 24 0;
#X connect 6 0 2 0;
#X connect 7 0 13 0;
#X connect 8 0 9 0;
#X connect 9 0 7 1;
#X connect 10 0 19 0;
#X connect 14 0 16 0;
#X connect 16 0 6 1;
#X connect 16 0 9 1;
#X connect 17 0 6 0;
#X connect 18 0 4 1;
#X connect 19 0 5 1;
#X connect 20 0 26 0;
#X connect 21 0 22 0;
#X connect 22 0 20 0;
#X connect 22 0 18 0;
#X connect 24 0 3 0;
#X connect 25 0 5 0;
#X connect 26 0 19 1;
#X connect 27 0 26 1;
#X connect 28 0 30 0;
#X connect 29 0 17 0;
#X connect 30 0 29 0;
#X connect 31 0 33 0;
#X connect 32 0 8 0;
#X connect 33 0 32 0;
#X restore 366 568 pd rnd_fm_osc3;
#N canvas 29 104 723 642 rnd_fm_osc4 0;
#X obj 96 55 inlet;
#X obj 296 4 inlet;
#X obj 184 344 line~;
#X obj 168 366 *~;
#X obj 170 426 *~;
#X obj 168 212 +~;
#X obj 184 321 pack 0 1700;
#X obj 162 539 *~;
#X obj 185 491 random 8;
#N canvas 99 258 450 300 am1 0;
#X obj 91 228 outlet~;
#X obj 92 194 osc~;
#X obj 99 165 line;
#X obj 99 142 pack 0 850;
#X obj 99 99 inlet;
#X obj 209 101 inlet;
#X text 101 86 freq;
#X text 213 84 clocklen/2;
#X msg 208 148 1;
#X connect 1 0 0 0;
#X connect 2 0 1 0;
#X connect 3 0 2 0;
#X connect 4 0 3 0;
#X connect 5 0 3 1;
#X connect 5 0 8 0;
#X connect 8 0 1 1;
#X restore 183 517 pd am1;
#X obj 156 49 inlet;
#X text 95 37 freq;
#X text 161 32 modfreq;
#X obj 162 566 outlet~;
#X obj 224 46 inlet;
#X text 224 32 clocklen;
#X obj 351 227 / 2;
#X obj 188 293 random 2;
#N canvas 395 83 876 445 vol_level_mod 0;
#X obj 61 307 outlet;
#X msg 65 261 \$1 400;
#X obj 65 284 line;
#X obj 67 237 clip 0.125 0.3;
#X obj 74 173 metro 300;
#X obj 73 194 random 1000;
#X obj 71 213 / 1000;
#X obj 79 144 inlet;
#X obj 170 106 r \$0rfmdroneseed;
#X msg 171 150 seed \$1;
#X obj 171 127 + 3;
#X connect 1 0 2 0;
#X connect 2 0 0 0;
#X connect 3 0 1 0;
#X connect 4 0 5 0;
#X connect 5 0 6 0;
#X connect 6 0 3 0;
#X connect 7 0 4 0;
#X connect 8 0 10 0;
#X connect 9 0 5 0;
#X connect 10 0 9 0;
#X restore 234 390 pd vol_level_mod;
#N canvas 600 90 680 300 freqmod1 0;
#X obj 82 219 outlet~;
#X obj 70 78 osc~;
#X obj 78 187 *~;
#X obj 76 136 *~;
#X obj 213 150 noise~;
#X obj 253 3 inlet;
#X obj 133 76 inlet;
#X msg 225 54 bang;
#X obj 320 43 int;
#X obj 355 37 + 1;
#X obj 349 59 mod 2;
#X obj 76 162 +~;
#X obj 67 48 inlet;
#X text 72 32 freq;
#X text 125 59 fm depth;
#X text 254 -11 metro bang;
#X obj 191 190 tabwrite~ \$0fmnoise1;
#X obj 279 90 tabosc4~ \$0fmnoise4;
#X obj 272 118 table \$0fmnoise4 259;
#X connect 1 0 3 0;
#X connect 2 0 0 0;
#X connect 3 0 11 0;
#X connect 4 0 16 0;
#X connect 5 0 7 0;
#X connect 5 0 8 0;
#X connect 6 0 3 1;
#X connect 6 0 2 1;
#X connect 7 0 16 0;
#X connect 8 0 9 0;
#X connect 9 0 10 0;
#X connect 10 0 8 1;
#X connect 10 0 17 0;
#X connect 11 0 2 0;
#X connect 12 0 1 0;
#X connect 17 0 11 1;
#X restore 197 163 pd freqmod1;
#N canvas 11 86 450 300 fmdepthmod 0;
#X obj 170 185 line;
#X obj 176 163 pack 0 10000;
#X obj 176 117 metro 10000;
#X obj 176 139 random 50;
#X obj 159 228 outlet;
#X obj 179 96 inlet;
#X obj 269 33 r \$0rfmdroneseed;
#X obj 270 54 + 1;
#X msg 270 77 seed \$1;
#X connect 0 0 4 0;
#X connect 1 0 0 0;
#X connect 2 0 3 0;
#X connect 3 0 1 0;
#X connect 5 0 2 0;
#X connect 6 0 7 0;
#X connect 7 0 8 0;
#X connect 8 0 3 0;
#X restore 294 112 pd fmdepthmod;
#X obj 418 43 loadbang;
#X msg 403 70 bang;
#X text 286 -12 metro bang;
#X obj 167 236 osc~;
#X obj 122 138 mtof;
#X obj 239 136 *;
#X obj 366 9 inlet;
#X obj 274 186 r \$0rfmdroneseed;
#X msg 275 230 seed \$1;
#X obj 275 207 + 2;
#X obj 274 415 r \$0rfmdroneseed;
#X msg 275 459 seed \$1;
#X obj 275 436 + 4;
#X connect 0 0 25 0;
#X connect 1 0 8 0;
#X connect 1 0 17 0;
#X connect 1 0 19 2;
#X connect 2 0 3 1;
#X connect 3 0 4 0;
#X connect 4 0 7 0;
#X connect 5 0 24 0;
#X connect 6 0 2 0;
#X connect 7 0 13 0;
#X connect 8 0 9 0;
#X connect 9 0 7 1;
#X connect 10 0 19 0;
#X connect 14 0 16 0;
#X connect 16 0 6 1;
#X connect 16 0 9 1;
#X connect 17 0 6 0;
#X connect 18 0 4 1;
#X connect 19 0 5 1;
#X connect 20 0 26 0;
#X connect 21 0 22 0;
#X connect 22 0 20 0;
#X connect 22 0 18 0;
#X connect 24 0 3 0;
#X connect 25 0 5 0;
#X connect 26 0 19 1;
#X connect 27 0 26 1;
#X connect 28 0 30 0;
#X connect 29 0 17 0;
#X connect 30 0 29 0;
#X connect 31 0 33 0;
#X connect 32 0 8 0;
#X connect 33 0 32 0;
#X restore 462 568 pd rnd_fm_osc4;
#N canvas 29 104 723 642 rnd_fm_osc5 0;
#X obj 96 55 inlet;
#X obj 296 4 inlet;
#X obj 184 344 line~;
#X obj 168 366 *~;
#X obj 170 426 *~;
#X obj 168 212 +~;
#X obj 184 321 pack 0 1700;
#X obj 162 539 *~;
#X obj 185 491 random 8;
#N canvas 99 258 450 300 am1 0;
#X obj 91 228 outlet~;
#X obj 92 194 osc~;
#X obj 99 165 line;
#X obj 99 142 pack 0 850;
#X obj 99 99 inlet;
#X obj 209 101 inlet;
#X text 101 86 freq;
#X text 213 84 clocklen/2;
#X msg 208 148 1;
#X connect 1 0 0 0;
#X connect 2 0 1 0;
#X connect 3 0 2 0;
#X connect 4 0 3 0;
#X connect 5 0 3 1;
#X connect 5 0 8 0;
#X connect 8 0 1 1;
#X restore 183 517 pd am1;
#X obj 156 49 inlet;
#X text 95 37 freq;
#X text 161 32 modfreq;
#X obj 162 566 outlet~;
#X obj 224 46 inlet;
#X text 224 32 clocklen;
#X obj 351 227 / 2;
#X obj 188 293 random 2;
#N canvas 395 83 876 445 vol_level_mod 0;
#X obj 61 307 outlet;
#X msg 65 261 \$1 400;
#X obj 65 284 line;
#X obj 67 237 clip 0.125 0.3;
#X obj 74 173 metro 300;
#X obj 73 194 random 1000;
#X obj 71 213 / 1000;
#X obj 79 144 inlet;
#X obj 170 106 r \$0rfmdroneseed;
#X msg 171 150 seed \$1;
#X obj 171 127 + 3;
#X connect 1 0 2 0;
#X connect 2 0 0 0;
#X connect 3 0 1 0;
#X connect 4 0 5 0;
#X connect 5 0 6 0;
#X connect 6 0 3 0;
#X connect 7 0 4 0;
#X connect 8 0 10 0;
#X connect 9 0 5 0;
#X connect 10 0 9 0;
#X restore 234 390 pd vol_level_mod;
#N canvas 600 90 680 300 freqmod1 0;
#X obj 82 219 outlet~;
#X obj 70 78 osc~;
#X obj 78 187 *~;
#X obj 76 136 *~;
#X obj 213 150 noise~;
#X obj 253 3 inlet;
#X obj 133 76 inlet;
#X msg 225 54 bang;
#X obj 320 43 int;
#X obj 355 37 + 1;
#X obj 349 59 mod 2;
#X obj 76 162 +~;
#X obj 67 48 inlet;
#X text 72 32 freq;
#X text 125 59 fm depth;
#X text 254 -11 metro bang;
#X obj 191 190 tabwrite~ \$0fmnoise1;
#X obj 278 90 tabosc4~ \$0fmnoise5;
#X obj 272 118 table \$0fmnoise5 259;
#X connect 1 0 3 0;
#X connect 2 0 0 0;
#X connect 3 0 11 0;
#X connect 4 0 16 0;
#X connect 5 0 7 0;
#X connect 5 0 8 0;
#X connect 6 0 3 1;
#X connect 6 0 2 1;
#X connect 7 0 16 0;
#X connect 8 0 9 0;
#X connect 9 0 10 0;
#X connect 10 0 8 1;
#X connect 10 0 17 0;
#X connect 11 0 2 0;
#X connect 12 0 1 0;
#X connect 17 0 11 1;
#X restore 197 163 pd freqmod1;
#N canvas 11 86 450 300 fmdepthmod 0;
#X obj 170 185 line;
#X obj 176 163 pack 0 10000;
#X obj 176 117 metro 10000;
#X obj 176 139 random 50;
#X obj 159 228 outlet;
#X obj 179 96 inlet;
#X obj 269 33 r \$0rfmdroneseed;
#X obj 270 54 + 1;
#X msg 270 77 seed \$1;
#X connect 0 0 4 0;
#X connect 1 0 0 0;
#X connect 2 0 3 0;
#X connect 3 0 1 0;
#X connect 5 0 2 0;
#X connect 6 0 7 0;
#X connect 7 0 8 0;
#X connect 8 0 3 0;
#X restore 294 112 pd fmdepthmod;
#X obj 418 43 loadbang;
#X msg 403 70 bang;
#X text 286 -12 metro bang;
#X obj 167 236 osc~;
#X obj 122 138 mtof;
#X obj 239 136 *;
#X obj 366 9 inlet;
#X obj 274 186 r \$0rfmdroneseed;
#X msg 275 230 seed \$1;
#X obj 275 207 + 2;
#X obj 274 415 r \$0rfmdroneseed;
#X msg 275 459 seed \$1;
#X obj 275 436 + 4;
#X connect 0 0 25 0;
#X connect 1 0 8 0;
#X connect 1 0 17 0;
#X connect 1 0 19 2;
#X connect 2 0 3 1;
#X connect 3 0 4 0;
#X connect 4 0 7 0;
#X connect 5 0 24 0;
#X connect 6 0 2 0;
#X connect 7 0 13 0;
#X connect 8 0 9 0;
#X connect 9 0 7 1;
#X connect 10 0 19 0;
#X connect 14 0 16 0;
#X connect 16 0 6 1;
#X connect 16 0 9 1;
#X connect 17 0 6 0;
#X connect 18 0 4 1;
#X connect 19 0 5 1;
#X connect 20 0 26 0;
#X connect 21 0 22 0;
#X connect 22 0 20 0;
#X connect 22 0 18 0;
#X connect 24 0 3 0;
#X connect 25 0 5 0;
#X connect 26 0 19 1;
#X connect 27 0 26 1;
#X connect 28 0 30 0;
#X connect 29 0 17 0;
#X connect 30 0 29 0;
#X connect 31 0 33 0;
#X connect 32 0 8 0;
#X connect 33 0 32 0;
#X restore 561 568 pd rnd_fm_osc5;
#N canvas 29 104 723 642 rnd_fm_osc6 0;
#X obj 96 55 inlet;
#X obj 296 4 inlet;
#X obj 184 344 line~;
#X obj 168 366 *~;
#X obj 170 426 *~;
#X obj 168 212 +~;
#X obj 184 321 pack 0 1700;
#X obj 162 539 *~;
#X obj 185 491 random 8;
#N canvas 99 258 450 300 am1 0;
#X obj 91 228 outlet~;
#X obj 92 194 osc~;
#X obj 99 165 line;
#X obj 99 142 pack 0 850;
#X obj 99 99 inlet;
#X obj 209 101 inlet;
#X text 101 86 freq;
#X text 213 84 clocklen/2;
#X msg 208 148 1;
#X connect 1 0 0 0;
#X connect 2 0 1 0;
#X connect 3 0 2 0;
#X connect 4 0 3 0;
#X connect 5 0 3 1;
#X connect 5 0 8 0;
#X connect 8 0 1 1;
#X restore 183 517 pd am1;
#X obj 156 49 inlet;
#X text 95 37 freq;
#X text 161 32 modfreq;
#X obj 162 566 outlet~;
#X obj 224 46 inlet;
#X text 224 32 clocklen;
#X obj 351 227 / 2;
#X obj 188 293 random 2;
#N canvas 395 83 876 445 vol_level_mod 0;
#X obj 61 307 outlet;
#X msg 65 261 \$1 400;
#X obj 65 284 line;
#X obj 67 237 clip 0.125 0.3;
#X obj 74 173 metro 300;
#X obj 73 194 random 1000;
#X obj 71 213 / 1000;
#X obj 79 144 inlet;
#X obj 170 106 r \$0rfmdroneseed;
#X msg 171 150 seed \$1;
#X obj 171 127 + 3;
#X connect 1 0 2 0;
#X connect 2 0 0 0;
#X connect 3 0 1 0;
#X connect 4 0 5 0;
#X connect 5 0 6 0;
#X connect 6 0 3 0;
#X connect 7 0 4 0;
#X connect 8 0 10 0;
#X connect 9 0 5 0;
#X connect 10 0 9 0;
#X restore 234 390 pd vol_level_mod;
#N canvas 600 90 680 300 freqmod1 0;
#X obj 82 219 outlet~;
#X obj 70 78 osc~;
#X obj 78 187 *~;
#X obj 76 136 *~;
#X obj 213 150 noise~;
#X obj 253 3 inlet;
#X obj 133 76 inlet;
#X msg 225 54 bang;
#X obj 320 43 int;
#X obj 355 37 + 1;
#X obj 349 59 mod 2;
#X obj 76 162 +~;
#X obj 67 48 inlet;
#X text 72 32 freq;
#X text 125 59 fm depth;
#X text 254 -11 metro bang;
#X obj 191 190 tabwrite~ \$0fmnoise1;
#X obj 279 90 tabosc4~ \$0fmnoise6;
#X obj 272 118 table \$0fmnoise6 259;
#X connect 1 0 3 0;
#X connect 2 0 0 0;
#X connect 3 0 11 0;
#X connect 4 0 16 0;
#X connect 5 0 7 0;
#X connect 5 0 8 0;
#X connect 6 0 3 1;
#X connect 6 0 2 1;
#X connect 7 0 16 0;
#X connect 8 0 9 0;
#X connect 9 0 10 0;
#X connect 10 0 8 1;
#X connect 10 0 17 0;
#X connect 11 0 2 0;
#X connect 12 0 1 0;
#X connect 17 0 11 1;
#X restore 197 163 pd freqmod1;
#N canvas 11 86 450 300 fmdepthmod 0;
#X obj 170 185 line;
#X obj 176 163 pack 0 10000;
#X obj 176 117 metro 10000;
#X obj 176 139 random 50;
#X obj 159 228 outlet;
#X obj 179 96 inlet;
#X obj 269 33 r \$0rfmdroneseed;
#X obj 270 54 + 1;
#X msg 270 77 seed \$1;
#X connect 0 0 4 0;
#X connect 1 0 0 0;
#X connect 2 0 3 0;
#X connect 3 0 1 0;
#X connect 5 0 2 0;
#X connect 6 0 7 0;
#X connect 7 0 8 0;
#X connect 8 0 3 0;
#X restore 294 112 pd fmdepthmod;
#X obj 418 43 loadbang;
#X msg 403 70 bang;
#X text 286 -12 metro bang;
#X obj 167 236 osc~;
#X obj 122 138 mtof;
#X obj 239 136 *;
#X obj 366 9 inlet;
#X obj 274 186 r \$0rfmdroneseed;
#X msg 275 230 seed \$1;
#X obj 275 207 + 2;
#X obj 274 415 r \$0rfmdroneseed;
#X msg 275 459 seed \$1;
#X obj 275 436 + 4;
#X connect 0 0 25 0;
#X connect 1 0 8 0;
#X connect 1 0 17 0;
#X connect 1 0 19 2;
#X connect 2 0 3 1;
#X connect 3 0 4 0;
#X connect 4 0 7 0;
#X connect 5 0 24 0;
#X connect 6 0 2 0;
#X connect 7 0 13 0;
#X connect 8 0 9 0;
#X connect 9 0 7 1;
#X connect 10 0 19 0;
#X connect 14 0 16 0;
#X connect 16 0 6 1;
#X connect 16 0 9 1;
#X connect 17 0 6 0;
#X connect 18 0 4 1;
#X connect 19 0 5 1;
#X connect 20 0 26 0;
#X connect 21 0 22 0;
#X connect 22 0 20 0;
#X connect 22 0 18 0;
#X connect 24 0 3 0;
#X connect 25 0 5 0;
#X connect 26 0 19 1;
#X connect 27 0 26 1;
#X connect 28 0 30 0;
#X connect 29 0 17 0;
#X connect 30 0 29 0;
#X connect 31 0 33 0;
#X connect 32 0 8 0;
#X connect 33 0 32 0;
#X restore 663 568 pd rnd_fm_osc6;
#X obj 606 187 nbx 3 14 0.1 10 0 1 empty empty fmd -19 8 0 10 -262144
-1 -1 1.52 256;
#X obj 196 329 +;
#X obj 377 231 nbx 3 14 0 127 0 1 empty empty empty 0 -8 0 10 -262144
-1 -1 69 256;
#X obj 435 232 nbx 3 14 -36 36 0 1 empty empty empty 0 -8 0 10 -262144
-1 -1 17 256;
#X obj 319 328 +;
#X obj 319 300 t b f;
#X obj 136 214 inlet;
#X obj 136 239 t b f;
#X obj 131 355 mtof;
#X obj 380 185 nbx 3 14 0 127 0 1 empty empty modp -25 8 0 10 -262144
-1 -1 86 256;
#X obj 131 329 +;
#X obj 491 232 nbx 3 14 -36 36 0 1 empty empty empty 0 -8 0 10 -262144
-1 -1 13 256;
#X obj 417 357 +;
#X obj 417 329 t b f;
#X obj 548 233 nbx 3 14 -36 36 0 1 empty empty empty 0 -8 0 10 -262144
-1 -1 3 256;
#X obj 504 386 +;
#X obj 504 358 t b f;
#X obj 612 233 nbx 3 14 -36 36 0 1 empty empty empty 0 -8 0 10 -262144
-1 -1 9 256;
#X obj 613 431 +;
#X obj 613 402 t b f;
#X obj 674 233 nbx 3 14 -36 36 0 1 empty empty empty 0 -8 0 10 -262144
-1 -1 21 256;
#X obj 705 470 +;
#X obj 705 442 t b f;
#X obj 381 207 hsl 100 15 0 1 0 0 empty empty empty -2 -8 0 10 -262144
-1 -1 0 1;
#X text 438 205 volume;
#X obj 380 250 hsl 32 8 0 1 0 1 empty empty empty -2 -8 0 10 -262144
-1 -1 2300 1;
#X obj 873 281 s d_pan_1;
#X obj 873 304 s d_pan_2;
#X obj 873 326 s d_pan_3;
#X obj 872 349 s d_pan_4;
#X obj 872 370 s d_pan_5;
#X obj 873 392 s d_pan_6;
#X obj 438 251 hsl 32 8 0 1 0 1 empty empty empty -2 -8 0 10 -262144
-1 -1 2400 1;
#X obj 494 251 hsl 32 8 0 1 0 1 empty empty empty -2 -8 0 10 -262144
-1 -1 1700 1;
#X obj 551 251 hsl 32 8 0 1 0 1 empty empty empty -2 -8 0 10 -262144
-1 -1 2300 1;
#X obj 614 251 hsl 32 8 0 1 0 1 empty empty empty -2 -8 0 10 -262144
-1 -1 2400 1;
#X obj 675 251 hsl 32 8 0 1 0 1 empty empty empty -2 -8 0 10 -262144
-1 -1 1000 1;
#X connect 0 0 22 2;
#X connect 0 0 23 2;
#X connect 0 0 24 2;
#X connect 0 0 25 2;
#X connect 0 0 26 2;
#X connect 0 0 27 2;
#X connect 1 0 4 0;
#X connect 3 0 0 0;
#X connect 3 0 8 0;
#X connect 3 1 2 0;
#X connect 4 0 3 0;
#X connect 5 0 7 0;
#X connect 7 0 4 0;
#X connect 8 0 14 0;
#X connect 9 0 14 0;
#X connect 9 1 14 1;
#X connect 10 0 18 0;
#X connect 12 0 15 0;
#X connect 12 0 16 0;
#X connect 13 0 22 3;
#X connect 13 0 23 3;
#X connect 13 0 24 3;
#X connect 13 0 25 3;
#X connect 13 0 26 3;
#X connect 13 0 27 3;
#X connect 14 0 17 0;
#X connect 15 0 17 1;
#X connect 16 0 18 1;
#X connect 17 0 13 0;
#X connect 18 0 13 0;
#X connect 21 0 19 0;
#X connect 21 1 20 0;
#X connect 22 0 21 0;
#X connect 23 0 21 1;
#X connect 24 0 21 2;
#X connect 25 0 21 3;
#X connect 26 0 21 4;
#X connect 27 0 21 5;
#X connect 28 0 22 4;
#X connect 28 0 23 4;
#X connect 28 0 24 4;
#X connect 28 0 25 4;
#X connect 28 0 26 4;
#X connect 28 0 27 4;
#X connect 29 0 32 0;
#X connect 29 0 40 0;
#X connect 29 0 43 0;
#X connect 29 0 46 0;
#X connect 29 0 49 0;
#X connect 29 0 22 0;
#X connect 30 0 29 0;
#X connect 31 0 33 0;
#X connect 32 0 23 0;
#X connect 33 0 32 0;
#X connect 33 1 32 1;
#X connect 34 0 35 0;
#X connect 35 0 38 0;
#X connect 35 0 29 0;
#X connect 35 1 38 1;
#X connect 35 1 29 1;
#X connect 36 0 22 1;
#X connect 36 0 23 1;
#X connect 36 0 24 1;
#X connect 36 0 25 1;
#X connect 36 0 26 1;
#X connect 36 0 27 1;
#X connect 37 0 38 0;
#X connect 38 0 36 0;
#X connect 39 0 41 0;
#X connect 40 0 24 0;
#X connect 41 0 40 0;
#X connect 41 1 40 1;
#X connect 42 0 44 0;
#X connect 43 0 25 0;
#X connect 44 0 43 0;
#X connect 44 1 43 1;
#X connect 45 0 47 0;
#X connect 46 0 26 0;
#X connect 47 0 46 0;
#X connect 47 1 46 1;
#X connect 48 0 50 0;
#X connect 49 0 27 0;
#X connect 50 0 49 0;
#X connect 50 1 49 1;
#X connect 51 0 21 6;
#X connect 53 0 54 0;
#X connect 60 0 55 0;
#X connect 61 0 56 0;
#X connect 62 0 57 0;
#X connect 63 0 58 0;
#X connect 64 0 59 0;
#X coords 0 -1 1 1 400 90 2 340 180;
