#N canvas 44 22 1247 753 10;
#X obj 298 728 vline~;
#X msg 975 23 0 \, 1 attack 0 \, sustain decay attack;
#X obj 401 515 snapshot~;
#X obj 401 393 == 0;
#X obj 9 455 > 0;
#X text 112 355 attack \$1;
#X text 159 327 decay \$2;
#X text 212 357 sustain \$3;
#X floatatom 9 483 5 0 0 0 - - -;
#X obj 47 472 sel 1;
#X obj 401 421 sel 1;
#X floatatom 128 379 5 0 0 0 - - -;
#X floatatom 174 380 5 0 0 0 - - -;
#X floatatom 222 380 5 0 0 0 - - -;
#X floatatom 269 381 5 0 0 0 - - -;
#X obj 279 562 f;
#X floatatom 311 579 5 0 0 0 - - -;
#X floatatom 356 532 5 0 0 0 - - -;
#X obj 401 494 bng 15 250 50 0 empty empty empty 17 7 0 10 -262144
-1 -1;
#X obj 279 601 pack f f;
#X obj 114 514 f;
#X obj 160 517 f;
#X obj 208 506 f;
#X floatatom 232 562 5 0 0 0 - - -;
#X floatatom 188 561 5 0 0 0 - - -;
#X obj 401 545 t b f;
#X floatatom 350 658 5 0 0 0 - - -;
#X floatatom 336 618 5 0 0 0 - - -;
#X msg 279 641 \$2 \, 0 \$1 0;
#X text 253 327 release;
#N canvas 0 22 450 300 (subpatch) 0;
#X array Envelope_Display 44100 float 0;
#X coords 0 1.02 44100 0 200 130 1;
#X restore 323 148 graph;
#X text 527 143 1;
#X obj 175 147 vsl 15 128 0 500 0 0 empty empty Decay 0 -9 0 10 -262144
-1 -1 5080 1;
#X obj 223 147 vsl 15 128 0 1 0 0 empty empty Sustain 0 -9 0 10 -262144
-1 -1 8890 1;
#X obj 270 147 vsl 15 128 0 2000 0 0 empty empty Release 0 -9 0 10
-262144 -1 -1 6350 1;
#X obj 128 146 vsl 15 128 0 300 0 0 empty empty Attack 0 -9 0 10 -262144
-1 -1 8467 1;
#X floatatom 129 287 5 0 0 0 - - -;
#X floatatom 175 288 5 0 0 0 - - -;
#X floatatom 223 288 5 0 0 0 - - -;
#X floatatom 270 288 5 0 0 0 - - -;
#X text 147 141 300;
#X text 147 262 0;
#X text 193 141 500;
#X text 193 263 0;
#X text 287 141 2000;
#X text 241 263 0;
#X text 239 140 1;
#X text 287 264 0;
#X obj 297 752 s~ AmpEnvelope;
#X obj 573 283 tabwrite~ Envelope_Display;
#X obj 573 257 bng 15 250 50 0 empty empty empty 17 7 0 10 -262144
-1 -1;
#X obj 9 428 r velocity;
#X text 242 107 Amplitude Envelope;
#X obj 401 363 r velocity;
#X obj 328 497 r~ \$0bang;
#X obj 226 745 s~ \$0bang;
#X obj 573 182 r velocity;
#X obj 573 208 > 0;
#X obj 573 232 sel 1;
#X obj 635 248 r~ AmpEnvelope;
#X text 525 263 0;
#X obj 34 638 snapshot~;
#X obj 114 560 pack f f f f;
#X obj 32 601 loadbang;
#X obj 114 489 t b b b b;
#X obj 197 35 loadbang;
#X msg 137 73 200;
#X msg 189 74 200;
#X msg 241 74 0.7;
#X msg 272 74 1000;
#X obj 628 220 loadbang;
#X obj 341 408 loadbang;
#X obj 114 463 loadbang;
#X msg 114 593 \$4 \, 1 \$1 0 \, \$3 \$2 \$1;
#X connect 0 0 48 0;
#X connect 0 0 55 0;
#X connect 0 0 61 0;
#X connect 2 0 17 0;
#X connect 2 0 25 0;
#X connect 3 0 10 0;
#X connect 4 0 8 0;
#X connect 4 0 9 0;
#X connect 9 0 64 0;
#X connect 10 0 18 0;
#X connect 11 0 20 1;
#X connect 12 0 21 1;
#X connect 13 0 22 1;
#X connect 14 0 15 1;
#X connect 15 0 16 0;
#X connect 15 0 19 0;
#X connect 18 0 2 0;
#X connect 19 0 28 0;
#X connect 19 0 27 0;
#X connect 20 0 62 0;
#X connect 21 0 24 0;
#X connect 21 0 62 1;
#X connect 22 0 23 0;
#X connect 22 0 62 2;
#X connect 25 0 15 0;
#X connect 25 1 19 1;
#X connect 28 0 0 0;
#X connect 28 0 26 0;
#X connect 32 0 37 0;
#X connect 33 0 38 0;
#X connect 34 0 39 0;
#X connect 35 0 36 0;
#X connect 36 0 11 0;
#X connect 37 0 12 0;
#X connect 38 0 13 0;
#X connect 39 0 14 0;
#X connect 50 0 49 0;
#X connect 51 0 4 0;
#X connect 53 0 3 0;
#X connect 54 0 2 0;
#X connect 56 0 57 0;
#X connect 57 0 58 0;
#X connect 58 0 50 0;
#X connect 59 0 49 0;
#X connect 61 0 62 3;
#X connect 62 0 73 0;
#X connect 63 0 61 0;
#X connect 64 0 20 0;
#X connect 64 1 21 0;
#X connect 64 2 22 0;
#X connect 64 3 61 0;
#X connect 65 0 66 0;
#X connect 65 0 67 0;
#X connect 65 0 68 0;
#X connect 65 0 69 0;
#X connect 66 0 35 0;
#X connect 67 0 32 0;
#X connect 68 0 33 0;
#X connect 69 0 34 0;
#X connect 70 0 49 0;
#X connect 71 0 2 0;
#X connect 72 0 64 0;
#X connect 73 0 0 0;
#X coords 0 -1 1 1 450 220 2 100 100;
