#N canvas 0 0 500 500 ;
#X obj 38 115 phasor~ 176;
#X obj 77 115 osc~ 7.8;
#X obj 58 143 *~;
#X obj 96 143 phasor~ 572;
#X obj 77 172 *~;
#X obj 173 143 osc~ 3.7;
#X obj 211 143 osc~ 7.8;
#X obj 192 172 *~;
#X obj 134 201 *~;
#X obj 269 172 osc~ 220;
#X obj 307 172 osc~ 7;
#X obj 288 201 *~;
#X obj 211 229 +~;
#X obj 211 258 *~ 0.5;
#X obj 250 258 osc~ 0.8;
#X obj 230 287 *~;
#X obj 365 201 osc~ 616;
#X obj 403 201 noise~;
#X obj 384 229 +~;
#X obj 384 258 *~ 0.5;
#X obj 422 258 osc~ 6.7;
#X obj 403 287 *~;
#X obj 317 315 +~;
#X obj 317 344 *~ 0.5;
#X obj 461 315 osc~ 308;
#X obj 480 287 osc~ 352;
#X obj 499 258 osc~ 0.3;
#X obj 538 258 osc~ 6.4;
#X obj 518 287 *~;
#X obj 499 315 *~;
#X obj 480 344 *~;
#X obj 398 373 +~;
#X obj 398 401 *~ 0.5;
#X obj 538 373 osc~ 6.7;
#X obj 557 344 osc~ 9.8;
#X obj 576 373 *~;
#X obj 595 344 sig~ 1;
#X obj 557 401 *~;
#X obj 478 430 *~;
#X obj 478 459 dac~;
#X connect 0 0 2 0;
#X connect 1 0 2 1;
#X connect 2 0 4 0;
#X connect 3 0 4 1;
#X connect 5 0 7 0;
#X connect 6 0 7 1;
#X connect 4 0 8 0;
#X connect 7 0 8 1;
#X connect 9 0 11 0;
#X connect 10 0 11 1;
#X connect 8 0 12 0;
#X connect 11 0 12 1;
#X connect 12 0 13 0;
#X connect 13 0 15 0;
#X connect 14 0 15 1;
#X connect 16 0 18 0;
#X connect 17 0 18 1;
#X connect 18 0 19 0;
#X connect 19 0 21 0;
#X connect 20 0 21 1;
#X connect 15 0 22 0;
#X connect 21 0 22 1;
#X connect 22 0 23 0;
#X connect 26 0 28 0;
#X connect 27 0 28 1;
#X connect 25 0 29 0;
#X connect 28 0 29 1;
#X connect 24 0 30 0;
#X connect 29 0 30 1;
#X connect 23 0 31 0;
#X connect 30 0 31 1;
#X connect 31 0 32 0;
#X connect 34 0 35 0;
#X connect 36 0 35 1;
#X connect 33 0 37 0;
#X connect 35 0 37 1;
#X connect 32 0 38 0;
#X connect 37 0 38 1;
#X connect 38 0 39 0;
#X connect 38 0 39 1;
