#N canvas 0 0 500 500 ;
#X obj 286 365 osc~ 308;
#X obj 49 146 osc~ 396;
#X obj 73 115 osc~ 4;
#X obj 122 115 osc~ 5.2;
#X obj 97 146 *~;
#X obj 73 177 *~;
#X obj 122 177 osc~ 484;
#X obj 97 208 *~;
#X obj 146 208 osc~ 5.1;
#X obj 122 240 *~;
#X obj 244 208 phasor~ 484;
#X obj 268 177 osc~ 1.7;
#X obj 317 177 osc~ 7.4;
#X obj 292 208 *~;
#X obj 268 240 *~;
#X obj 195 271 +~;
#X obj 195 302 *~ 0.5;
#X obj 414 271 osc~ 396;
#X obj 414 115 osc~ 8.4;
#X obj 390 146 *~;
#X obj 365 115 sig~ 1;
#X obj 439 146 osc~ 4.1;
#X obj 414 177 *~;
#X obj 414 208 *~ 8;
#X obj 414 240 +~ 396;
#X obj 536 208 phasor~ 352;
#X obj 585 208 osc~ 6.8;
#X obj 560 240 *~;
#X obj 536 271 *~;
#X obj 512 240 sig~ 1;
#X obj 475 302 *~;
#X obj 335 334 +~;
#X obj 335 365 *~ 0.5;
#X obj 311 396 +~;
#X obj 311 427 *~ 0.5;
#X obj 311 459 dac~;
#X connect 2 0 4 0;
#X connect 3 0 4 1;
#X connect 1 0 5 0;
#X connect 4 0 5 1;
#X connect 5 0 7 0;
#X connect 6 0 7 1;
#X connect 7 0 9 0;
#X connect 8 0 9 1;
#X connect 11 0 13 0;
#X connect 12 0 13 1;
#X connect 10 0 14 0;
#X connect 13 0 14 1;
#X connect 9 0 15 0;
#X connect 14 0 15 1;
#X connect 15 0 16 0;
#X connect 20 0 19 0;
#X connect 18 0 19 1;
#X connect 19 0 22 0;
#X connect 21 0 22 1;
#X connect 22 0 23 0;
#X connect 23 0 24 0;
#X connect 24 0 17 0;
#X connect 25 0 27 0;
#X connect 26 0 27 1;
#X connect 29 0 28 0;
#X connect 27 0 28 1;
#X connect 17 0 30 0;
#X connect 28 0 30 1;
#X connect 16 0 31 0;
#X connect 30 0 31 1;
#X connect 31 0 32 0;
#X connect 0 0 33 0;
#X connect 32 0 33 1;
#X connect 33 0 34 0;
#X connect 34 0 35 0;
#X connect 34 0 35 1;