#N canvas 0 0 500 500 ;
#X obj 211 344 osc~ 352;
#X obj 264 306 osc~ 88;
#X obj 106 153 osc~ 176;
#X obj 158 191 *~;
#X obj 211 153 sig~ 1;
#X obj 370 115 osc~ 0.1;
#X obj 422 153 *~;
#X obj 475 115 sig~ 1;
#X obj 475 191 *~;
#X obj 528 153 sig~ 1;
#X obj 317 229 *~;
#X obj 370 268 +~;
#X obj 422 229 sig~ 0;
#X obj 370 306 *~ 0.5;
#X obj 317 344 *~;
#X obj 264 382 *~;
#X obj 370 382 osc~ 7.8;
#X obj 317 420 *~;
#X obj 317 459 dac~;
#X connect 2 0 3 0;
#X connect 4 0 3 1;
#X connect 5 0 6 0;
#X connect 7 0 6 1;
#X connect 6 0 8 0;
#X connect 9 0 8 1;
#X connect 3 0 10 0;
#X connect 8 0 10 1;
#X connect 10 0 11 0;
#X connect 12 0 11 1;
#X connect 11 0 13 0;
#X connect 1 0 14 0;
#X connect 13 0 14 1;
#X connect 0 0 15 0;
#X connect 14 0 15 1;
#X connect 15 0 17 0;
#X connect 16 0 17 1;
#X connect 17 0 18 0;
#X connect 17 0 18 1;