#N canvas 64 80 889 637 10;
#X obj 265 29 phasor~ 4;
#X obj 264 56 *~ 3;
#X obj 97 112 clip~ 0 1;
#X obj 263 102 clip~ 1 2;
#X obj 438 100 clip~ 2 3;
#X obj 263 127 -~ 1;
#X obj 438 128 -~ 2;
#X obj 97 150 *~ 0.5;
#X obj 263 155 *~ 0.5;
#X obj 438 153 *~ 0.5;
#X obj 97 189 -~ 0.25;
#X obj 263 181 -~ 0.25;
#X obj 438 181 -~ 0.25;
#X obj 97 225 cos~;
#X obj 263 220 cos~;
#X obj 438 223 cos~;
#X obj 37 225 osc~ 723;
#X obj 200 218 osc~ 932;
#X obj 371 223 osc~ 1012;
#X obj 82 281 *~;
#X obj 247 304 *~;
#X obj 423 294 *~;
#X obj 246 357 *~ 0.2;
#X obj 119 400 throw~ b1;
#X obj 192 400 throw~ b2;
#X obj 267 400 throw~ b3;
#X obj 111 431 delread~ d1 165;
#X obj 216 430 delread~ d2 121;
#X obj 324 429 delread~ d3 33;
#X obj 217 472 *~ 0.1;
#X obj 342 400 send~ dir;
#X obj 116 514 throw~ b1;
#X obj 189 514 throw~ b2;
#X obj 264 514 throw~ b3;
#X obj 339 514 send~ echo;
#X obj 572 105 catch~ b1;
#X obj 572 134 delwrite~ d1 1000;
#X obj 573 170 catch~ b2;
#X obj 573 199 delwrite~ d2 1000;
#X obj 575 236 catch~ b3;
#X obj 575 265 delwrite~ d3 1000;
#X obj 570 414 receive~ dir;
#X obj 677 411 receive~ echo;
#X obj 571 445 *~ 0.2;
#X obj 678 442 *~ 0.5;
#X obj 635 470 +~;
#X obj 636 499 dac~;
#X connect 0 0 1 0;
#X connect 1 0 2 0;
#X connect 1 0 3 0;
#X connect 1 0 4 0;
#X connect 2 0 7 0;
#X connect 3 0 5 0;
#X connect 4 0 6 0;
#X connect 5 0 8 0;
#X connect 6 0 9 0;
#X connect 7 0 10 0;
#X connect 8 0 11 0;
#X connect 9 0 12 0;
#X connect 10 0 13 0;
#X connect 11 0 14 0;
#X connect 12 0 15 0;
#X connect 13 0 19 1;
#X connect 14 0 20 1;
#X connect 15 0 21 1;
#X connect 16 0 19 0;
#X connect 17 0 20 0;
#X connect 18 0 21 0;
#X connect 19 0 22 0;
#X connect 20 0 22 0;
#X connect 21 0 22 0;
#X connect 22 0 23 0;
#X connect 22 0 24 0;
#X connect 22 0 25 0;
#X connect 22 0 30 0;
#X connect 26 0 29 0;
#X connect 27 0 29 0;
#X connect 28 0 29 0;
#X connect 29 0 31 0;
#X connect 29 0 32 0;
#X connect 29 0 33 0;
#X connect 29 0 34 0;
#X connect 35 0 36 0;
#X connect 37 0 38 0;
#X connect 39 0 40 0;
#X connect 41 0 43 0;
#X connect 42 0 44 0;
#X connect 43 0 45 0;
#X connect 44 0 45 1;
#X connect 45 0 46 0;
