#N canvas 0 22 514 399 10;
#X obj -157 46 inlet~ dry;
#X obj -158 344 outlet~;
#X obj -51 285 *~;
#X obj 0 285 *~;
#X obj -111 285 *~;
#X obj -158 316 *~;
#X obj -111 316 *~;
#X obj -143 242 * -1;
#X obj -143 264 + 1;
#X obj 121 319 hsl 128 15 0 1 0 1 empty empty dry/wet -2 -6 0 8 -162280
-1 -1 0 1;
#X obj 120 176 vsl 15 128 0 1 0 1 empty empty BASS 0 -8 0 8 -228856
-1 -1 12000 1;
#X obj 175 176 vsl 15 128 0 1 0 1 empty empty MIDS 0 -8 0 8 -228856
-1 -1 11700 1;
#X obj 234 176 vsl 15 128 0 1 0 1 empty empty HIGHS 0 -8 0 8 -228856
-1 -1 11700 1;
#N canvas 23 90 450 300 biquad 0;
#X obj 44 248 outlet~;
#X obj 42 143 biquad~;
#X obj 43 163 biquad~;
#X obj 43 183 biquad~;
#X obj 12 119 lowpass 370 310;
#X obj 171 143 biquad~;
#X obj 170 163 biquad~;
#X obj 170 184 biquad~;
#X obj 140 120 bandpass 1175 490;
#X obj 282 120 highpass 2350 130;
#X obj 311 143 biquad~;
#X obj 311 163 biquad~;
#X obj 140 34 loadbang;
#X obj 170 248 outlet~;
#X obj 312 248 outlet~;
#X obj 43 34 inlet~ signal;
#X obj 283 61 switch~;
#X obj 283 32 inlet switch;
#X connect 1 0 2 0;
#X connect 2 0 3 0;
#X connect 3 0 0 0;
#X connect 4 0 1 0;
#X connect 4 0 2 0;
#X connect 4 0 3 0;
#X connect 5 0 6 0;
#X connect 6 0 7 0;
#X connect 7 0 13 0;
#X connect 8 0 5 0;
#X connect 8 0 6 0;
#X connect 8 0 7 0;
#X connect 9 0 10 0;
#X connect 9 0 11 0;
#X connect 10 0 11 0;
#X connect 11 0 14 0;
#X connect 12 0 4 0;
#X connect 12 0 8 0;
#X connect 12 0 9 0;
#X connect 15 0 1 0;
#X connect 15 0 5 0;
#X connect 15 0 10 0;
#X connect 17 0 16 0;
#X restore -112 91 pd biquad filter bank;
#X obj 120 135 tgl 15 0 empty empty empty 17 7 0 10 -228856 -1 -1 0
1;
#N canvas 0 22 694 432 biquad 0;
#X obj 76 35 inlet~;
#X obj 77 379 outlet~;
#X obj 203 379 outlet~;
#X obj 345 379 outlet~;
#X obj 76 90 biquad~ 1.86972 -0.872325 0.000650245 0.00130049 0.000650245
;
#X text 195 69 lo x3;
#X obj 76 110 biquad~ 1.86972 -0.872325 0.000650245 0.00130049 0.000650245
;
#X obj 76 130 biquad~ 1.86972 -0.872325 0.000650245 0.00130049 0.000650245
;
#X obj 204 182 biquad~ 1.36591 -0.385279 0.307361 0 -0.307361;
#X text 339 162 mid x3;
#X obj 204 202 biquad~ 1.36591 -0.385279 0.307361 0 -0.307361;
#X obj 204 222 biquad~ 1.36591 -0.385279 0.307361 0 -0.307361;
#X obj 346 273 biquad~ 1.63386 -0.729864 0.840931 -1.68186 0.840931
;
#X text 486 251 hi x2;
#X obj 346 293 biquad~ 1.63386 -0.729864 0.840931 -1.68186 0.840931
;
#X obj 265 64 switch~;
#X obj 265 35 inlet switch;
#X connect 0 0 4 0;
#X connect 0 0 8 0;
#X connect 0 0 12 0;
#X connect 4 0 6 0;
#X connect 6 0 7 0;
#X connect 7 0 1 0;
#X connect 8 0 10 0;
#X connect 10 0 11 0;
#X connect 11 0 2 0;
#X connect 12 0 14 0;
#X connect 14 0 3 0;
#X connect 16 0 15 0;
#X restore -101 116 pd biquad filter bank 2;
#X obj 235 137 tgl 15 0 empty empty empty 17 7 0 10 -128992 -1 -1 0
1;
#X obj -159 18 cnv 15 120 20 empty empty empty 20 12 0 14 -228856 -66577
0;
#X text -155 19 equalizer;
#X connect 0 0 5 0;
#X connect 0 0 13 0;
#X connect 0 0 15 0;
#X connect 2 0 6 0;
#X connect 3 0 6 0;
#X connect 4 0 6 0;
#X connect 5 0 1 0;
#X connect 6 0 1 0;
#X connect 7 0 8 0;
#X connect 8 0 5 1;
#X connect 9 0 7 0;
#X connect 9 0 6 1;
#X connect 10 0 4 1;
#X connect 11 0 2 1;
#X connect 12 0 3 1;
#X connect 13 0 4 0;
#X connect 13 1 2 0;
#X connect 13 2 3 0;
#X connect 14 0 13 1;
#X connect 15 0 4 0;
#X connect 15 1 2 0;
#X connect 15 2 3 0;
#X connect 16 0 15 1;
