#N canvas 329 124 643 543 10;
#X obj 270 447 *~;
#X floatatom 480 369 5 0.01 1 0 - - -;
#X obj 270 475 hip~ 5;
#X obj 269 504 dac~;
#X obj 270 218 *~;
#X obj 30 381 delwrite~ buff1 1000;
#X floatatom 271 97 5 0 0 0 - - -;
#X obj 271 126 sig~;
#X obj 271 155 vd~ buff1;
#X floatatom 296 188 5 0.01 1 0 - - -;
#X text 367 254 comment;
#X text 473 164 comment;
#X obj 30 297 line~;
#X obj 30 330 osc~;
#X msg 30 265 \$1 200;
#X msg 30 237 + 400;
#X obj 30 209 random 2000;
#X obj 30 181 metro 200;
#X obj 30 146 tgl 15 0 empty empty empty 0 -6 0 10 -262144 -1 -1 0
1;
#X obj 363 219 *~;
#X floatatom 364 98 5 0 0 0 - - -;
#X obj 364 127 sig~;
#X obj 364 156 vd~ buff1;
#X floatatom 389 189 5 0.01 1 0 - - -;
#X obj 460 220 *~;
#X floatatom 461 99 5 0 0 0 - - -;
#X obj 461 128 sig~;
#X obj 461 157 vd~ buff1;
#X floatatom 486 190 5 0.01 1 0 - - -;
#X obj 566 219 *~;
#X floatatom 567 98 5 0 0 0 - - -;
#X obj 567 127 sig~;
#X obj 567 156 vd~ buff1;
#X floatatom 592 189 5 0.01 1 0 - - -;
#X text 266 70 loop dur;
#X text 372 31 input signal;
#X connect 0 0 2 0;
#X connect 1 0 0 1;
#X connect 2 0 3 1;
#X connect 2 0 3 0;
#X connect 4 0 0 0;
#X connect 4 0 5 0;
#X connect 6 0 7 0;
#X connect 7 0 8 0;
#X connect 8 0 4 0;
#X connect 9 0 4 1;
#X connect 12 0 13 0;
#X connect 13 0 5 0;
#X connect 14 0 12 0;
#X connect 15 0 14 0;
#X connect 16 0 15 0;
#X connect 17 0 16 0;
#X connect 18 0 17 0;
#X connect 19 0 5 0;
#X connect 19 0 0 0;
#X connect 20 0 21 0;
#X connect 21 0 22 0;
#X connect 22 0 19 0;
#X connect 23 0 19 1;
#X connect 24 0 5 0;
#X connect 24 0 0 0;
#X connect 25 0 26 0;
#X connect 26 0 27 0;
#X connect 27 0 24 0;
#X connect 28 0 24 1;
#X connect 29 0 5 0;
#X connect 29 0 0 0;
#X connect 30 0 31 0;
#X connect 31 0 32 0;
#X connect 32 0 29 0;
#X connect 33 0 29 1;
