#N canvas 337 314 450 300 10;
#X obj 137 207 inlet~;
#X obj 273 60 inlet;
#X obj 273 85 sig~;
#X obj 273 109 lop~ 1;
#X obj 273 132 *~ 0.25;
#X obj 273 156 -~ 0.25;
#X obj 273 179 cos~;
#X obj 218 180 -~ 0.25;
#X obj 218 203 cos~;
#X obj 203 225 *~;
#X obj 258 226 *~;
#X obj 203 253 outlet~;
#X obj 258 254 outlet~;
#X connect 0 0 10 0;
#X connect 0 0 9 0;
#X connect 1 0 2 0;
#X connect 2 0 3 0;
#X connect 3 0 4 0;
#X connect 4 0 5 0;
#X connect 5 0 6 0;
#X connect 5 0 7 0;
#X connect 6 0 10 1;
#X connect 7 0 8 0;
#X connect 8 0 9 1;
#X connect 9 0 11 0;
#X connect 10 0 12 0;
