#N canvas 173 28 1219 732 10;
#X msg 690 180 0 2 4 5 7 9 11;
#X msg 724 207 0 2 3 5 7 8 10;
#X msg 776 261 0 2 4 6 7 9 11;
#X msg 751 234 0 1 3 5 7 8 10;
#X text 792 180 Major (Ionian);
#X text 824 204 Minor (Aeolian);
#X text 876 261 Lydian;
#X msg 816 290 0 2 4 6 8 10;
#X text 852 233 Phrygian;
#X text 903 289 Whole Tone;
#X obj 661 578 prepend 0;
#X obj 667 401 t l l;
#X obj 737 428 list length;
#X obj 721 640 s \$0-scale;
#X msg 737 532 resize \$1;
#X text 743 576 <-- this tells the array \$0-scale to fill the array
elements starting at element 0;
#X text 808 531 <-- set the array size to the number of tones in the
scale octave.;
#X obj 750 467 s \$0-scale_length;
#X obj 167 48 r \$0-scale_length;
#X floatatom 67 34 5 0 0 0 - - -;
#X obj 67 124 mod 7;
#X text 110 123 <-- [mod ] handles negative numbers differently than
[% ];
#X obj 142 167 div 7;
#X obj 67 67 t f f;
#X floatatom 199 211 5 0 0 0 - - -;
#X obj 74 282 tabread \$0-scale;
#X floatatom 74 458 5 0 0 0 - - -;
#X obj 695 69 popup 124 25 #ffffff popup Major Minor Phrygian Lydian
Whole-Tone;
#X obj 1020 370 popup-help;
#X msg 696 38 options Major Minor Phrygian Lydian Whole-Tone;
#X obj 694 147 sel 0 1 2 3 4;
#N canvas 0 22 450 278 (subpatch) 0;
#X array \$0-scale 7 float 3;
#A 0 0 2 4 6 7 9 11;
#X coords 0 12 7 0 200 140 1;
#X restore 152 526 graph;
#X text 134 656 0;
#X text 130 518 12;
#X floatatom 30 185 5 0 0 0 - - -;
#X obj 142 220 * 12;
#X obj 74 356 +;
#X obj 74 398 + 48;
#X obj 691 112 route bang;
#X text 767 111 <-- this is just to avoid error messages \, because
[popup] bangs on load.;
#X text 1058 666 .mmb;
#X text 189 163 <-- division that discards the remainder. This tells
you what octave to use.;
#X text 118 396 <-- offset;
#X connect 0 0 11 0;
#X connect 1 0 11 0;
#X connect 2 0 11 0;
#X connect 3 0 11 0;
#X connect 7 0 11 0;
#X connect 10 0 13 0;
#X connect 11 0 10 0;
#X connect 11 1 12 0;
#X connect 12 0 14 0;
#X connect 12 0 17 0;
#X connect 14 0 13 0;
#X connect 18 0 20 1;
#X connect 18 0 22 1;
#X connect 19 0 23 0;
#X connect 20 0 25 0;
#X connect 20 0 34 0;
#X connect 22 0 24 0;
#X connect 22 0 35 0;
#X connect 23 0 20 0;
#X connect 23 1 22 0;
#X connect 25 0 36 0;
#X connect 27 0 38 0;
#X connect 29 0 27 0;
#X connect 30 0 0 0;
#X connect 30 1 1 0;
#X connect 30 2 3 0;
#X connect 30 3 2 0;
#X connect 30 4 7 0;
#X connect 35 0 36 1;
#X connect 36 0 37 0;
#X connect 37 0 26 0;
#X connect 38 1 30 0;
