#N canvas 443 22 821 631 10;
#N canvas 0 22 1284 968 vocalchords 0;
#X obj 2 6 cnv 15 400 300 empty empty empty 20 12 0 14 -258113 -66577
0;
#X text 3 19 frequency;
#X obj 10 273 outlet~;
#X obj 10 40 inlet~;
#X text 75 59 Modello del comportamento delle corde vocali umane attraverso
una simulazione di una pulsazione continua.;
#X obj 11 134 phasor~;
#X connect 3 0 5 0;
#X connect 5 0 2 0;
#X restore 188 -147 pd vocalchords;
#X obj 188 -122 *~ 0.65;
#X obj 243 -196 hsl 128 15 0 1 0 0 empty empty empty -2 -8 0 10 -262144
-1 -1 0 1;
#X text 241 -215 vibrato;
#N canvas 0 22 1284 968 signal 0;
#X obj -1 -515 cnv 15 350 300 empty empty empty 20 12 0 14 -258113
-66577 0;
#X obj 15 -395 sig~;
#X obj 15 -294 +~;
#X obj 75 -356 *~;
#X obj 76 -463 *~ 8;
#X obj 89 -384 line~;
#X obj 75 -500 osc~ 5;
#X obj 15 -432 inlet;
#X obj 89 -414 inlet;
#X obj 14 -264 outlet~;
#X connect 1 0 2 0;
#X connect 2 0 9 0;
#X connect 3 0 2 1;
#X connect 4 0 3 0;
#X connect 5 0 3 1;
#X connect 6 0 4 0;
#X connect 7 0 1 0;
#X connect 8 0 5 0;
#X restore 189 -171 pd signal;
#X msg 189 -245 110;
#X text 217 -246 110 Hz;
#N canvas 76 134 410 320 linearizza 0;
#X obj 7 -582 cnv 15 400 300 empty empty empty 20 12 0 14 -260097 -66577
0;
#N canvas 0 22 1028 726 linearizza 0;
#X obj 56 -539 inlet;
#X obj 177 -538 inlet;
#X obj 286 -539 inlet;
#X obj 108 -488 -;
#X obj 239 -485 -;
#X text 12 -565 da linearizzare;
#X text 175 -563 minimo;
#X text 284 -564 massimo;
#X obj 170 -443 /;
#X obj 121 -401 moses 0;
#X obj 172 -362 moses 1;
#X obj 172 -297 outlet;
#X floatatom 207 -412 5 0 0 0 - - -;
#X floatatom 231 -298 5 0 0 0 - - -;
#X msg 121 -362 0;
#X msg 223 -331 1;
#X connect 0 0 3 0;
#X connect 1 0 3 1;
#X connect 1 0 4 1;
#X connect 2 0 4 0;
#X connect 3 0 8 0;
#X connect 4 0 8 1;
#X connect 8 0 9 0;
#X connect 8 0 12 0;
#X connect 9 0 14 0;
#X connect 9 1 10 0;
#X connect 10 0 11 0;
#X connect 10 0 13 0;
#X connect 10 1 15 0;
#X connect 14 0 11 0;
#X connect 15 0 11 0;
#X restore 52 -470 pd linearizza X;
#X floatatom 52 -442 5 0 0 0 - - -;
#X text 77 -550 250 (min);
#X text 139 -551 800 (max);
#N canvas 0 22 458 378 linearizza 0;
#X obj 56 40 inlet;
#X obj 177 41 inlet;
#X obj 286 40 inlet;
#X obj 108 91 -;
#X obj 239 94 -;
#X text 12 14 da linearizzare;
#X text 175 16 minimo;
#X text 284 15 massimo;
#X obj 170 136 /;
#X obj 121 178 moses 0;
#X obj 172 217 moses 1;
#X obj 172 282 outlet;
#X floatatom 207 167 5 0 0 0 - - -;
#X floatatom 231 281 5 0 0 0 - - -;
#X msg 121 217 0;
#X msg 223 248 1;
#X connect 0 0 3 0;
#X connect 1 0 3 1;
#X connect 1 0 4 1;
#X connect 2 0 4 0;
#X connect 3 0 8 0;
#X connect 4 0 8 1;
#X connect 8 0 9 0;
#X connect 8 0 12 0;
#X connect 9 0 14 0;
#X connect 9 1 10 0;
#X connect 10 0 11 0;
#X connect 10 0 13 0;
#X connect 10 1 15 0;
#X connect 14 0 11 0;
#X connect 15 0 11 0;
#X restore 225 -470 pd linearizza Y;
#X floatatom 225 -443 5 0 0 0 - - -;
#X text 259 -552 800 (min);
#X obj 52 -577 inlet;
#X obj 225 -578 inlet;
#X text 28 -351 Questa subpatch effettua la sclatura dei valori dell'asse
X e Y in entrata \, attraverso un'astrazione contenuta nella subapatch
'linearizza'. I valori in uscita corrispondono ai segnali di controllo
della frequenza (Hz) dei filtri delle formanti.;
#X obj 52 -375 outlet;
#X obj 225 -375 outlet;
#X obj 52 -398 + 250;
#X obj 225 -398 + 800;
#X obj 95 -526 inlet;
#X text 326 -551 3000 (max);
#X obj 139 -526 inlet;
#X obj 268 -527 inlet;
#X obj 312 -526 inlet;
#X msg 140 -499 1;
#X msg 95 -500 0;
#X msg 268 -499 0;
#X msg 312 -499 1;
#X obj 52 -421 * 500;
#X obj 225 -423 * 1500;
#X connect 1 0 2 0;
#X connect 2 0 24 0;
#X connect 5 0 6 0;
#X connect 6 0 25 0;
#X connect 8 0 1 0;
#X connect 9 0 5 0;
#X connect 13 0 11 0;
#X connect 14 0 12 0;
#X connect 15 0 21 0;
#X connect 17 0 20 0;
#X connect 18 0 22 0;
#X connect 19 0 23 0;
#X connect 20 0 1 2;
#X connect 21 0 1 1;
#X connect 22 0 5 1;
#X connect 23 0 5 2;
#X connect 24 0 13 0;
#X connect 25 0 14 0;
#X restore 316 -108 pd linearizza;
#N canvas 32 22 450 734 mouth 0;
#X obj 2 -451 cnv 15 400 600 empty empty empty 20 12 0 14 -257985 -66577
0;
#X obj 128 100 outlet~;
#X obj 129 64 /~ 2;
#X text 157 -274 (gain);
#X text 290 -272 (bandwidth);
#X text 206 -83 (gain);
#X text 333 -84 (bandwidth);
#N canvas 0 22 1284 968 formant 0;
#X obj 138 24 inlet~;
#X obj 192 69 inlet;
#X obj 235 210 inlet;
#X obj 220 117 inlet;
#X text 204 51 freq;
#X text 239 190 gain;
#X text 227 97 bw;
#X obj 137 438 outlet~;
#X obj 235 233 rmstodb;
#X obj 235 264 * 0.3;
#X obj 136 392 *~;
#X obj 153 243 sig~;
#X obj 139 336 vcf~;
#X connect 0 0 12 0;
#X connect 1 0 11 0;
#X connect 2 0 8 0;
#X connect 3 0 12 2;
#X connect 8 0 9 0;
#X connect 9 0 10 1;
#X connect 10 0 7 0;
#X connect 11 0 12 1;
#X connect 12 0 10 0;
#X restore 130 -165 pd formant 1;
#N canvas 0 22 1284 956 formant 0;
#X obj 138 24 inlet~;
#X obj 192 69 inlet;
#X obj 251 171 inlet;
#X obj 233 96 inlet;
#X text 204 51 freq;
#X text 255 151 gain;
#X text 240 76 bw;
#X obj 137 438 outlet~;
#X obj 251 194 rmstodb;
#X obj 251 225 * 0.3;
#X obj 136 392 *~;
#X obj 137 352 vcf~;
#X obj 155 235 sig~;
#X connect 0 0 11 0;
#X connect 1 0 12 0;
#X connect 2 0 8 0;
#X connect 3 0 11 2;
#X connect 8 0 9 0;
#X connect 9 0 10 1;
#X connect 10 0 7 0;
#X connect 11 0 10 0;
#X connect 12 0 11 1;
#X restore 177 18 pd formant 2;
#X obj 16 -314 inlet~;
#X obj 153 -320 inlet;
#X floatatom 153 -207 5 0 0 0 - - -;
#X floatatom 200 -24 5 0 0 0 - - -;
#X text 27 -436 Questa subpatch funge da modello della produzione della
vocali da parte della bocca umana. Qui troviamo i due filtri \, corrispondenti
alle due formanti principali F1 e F2 \, contenuti nella subpatch 'pd
formant'. I segnali in ingresso corrispondono al segnale di controllo
dei filtri \, e alla frequenza fondamentale di ogni formante.;
#X text 190 -320 (frequency);
#X text 235 -116 (frequency);
#X obj 200 -114 inlet;
#X obj 199 -274 inlet;
#X obj 254 -273 inlet;
#X obj 246 -86 inlet;
#X obj 297 -84 inlet;
#X msg 246 -54 0.0001;
#X msg 199 -250 0.0002;
#X msg 297 -55 70;
#X msg 254 -249 50;
#X connect 2 0 1 0;
#X connect 7 0 2 0;
#X connect 8 0 2 0;
#X connect 9 0 7 0;
#X connect 9 0 8 0;
#X connect 10 0 11 0;
#X connect 11 0 7 1;
#X connect 12 0 8 1;
#X connect 16 0 12 0;
#X connect 17 0 22 0;
#X connect 18 0 24 0;
#X connect 19 0 21 0;
#X connect 20 0 23 0;
#X connect 21 0 8 3;
#X connect 22 0 7 3;
#X connect 23 0 8 2;
#X connect 24 0 7 2;
#X coords 0 0 1 1 85 60 0;
#X restore 309 -58 pd mouth;
#X obj 310 71 dac~;
#X obj 314 37 *~;
#X obj 332 5 hsl 128 15 0 1 0 0 empty empty empty -2 -6 0 10 -262144
-1 -1 0 1;
#X obj 315 -432 grid grid1 200 0 1 200 0 1 1 0.005 0.005 20 20 434
-291;
#X msg 351 -266 U;
#X msg 428 -257 O;
#X msg 489 -265 A;
#X msg 422 -340 E;
#X msg 370 -408 I;
#N canvas 476 22 1028 726 vowels 0;
#X obj 77 13 inlet;
#X text 59 132 A;
#X text 94 163 E;
#X text 125 195 I;
#X text 159 233 O;
#X text 197 266 U;
#X obj 77 78 select 0 1 2 3 4;
#X text 224 569 a zero on the right side blocks the left side (this
is the selection male/female);
#X text 256 306 A;
#X text 309 329 E;
#X text 355 351 I;
#X text 398 370 O;
#X text 449 391 U;
#X obj 78 681 outlet;
#X msg 78 642 values \$1 \$2;
#X obj 78 599 pack f f;
#X obj 75 505 spigot;
#X text 114 59 a;
#X text 129 59 e;
#X text 143 59 i;
#X text 158 59 o;
#X text 172 59 u;
#X obj 306 23 inlet;
#X obj 306 58 select 0 1;
#X msg 348 121 0;
#X msg 306 120 1;
#X obj 192 506 spigot;
#X msg 109 165 0.553;
#X msg 141 198 0.303;
#X msg 176 234 0.602;
#X msg 217 269 0.2;
#X msg 275 307 0.122;
#X msg 325 326 0.504;
#X msg 371 355 0.847;
#X msg 414 372 0.073;
#X msg 466 390 0.107;
#X msg 78 132 0.896;
#X connect 0 0 6 0;
#X connect 6 0 36 0;
#X connect 6 0 31 0;
#X connect 6 1 27 0;
#X connect 6 1 32 0;
#X connect 6 2 28 0;
#X connect 6 2 33 0;
#X connect 6 3 29 0;
#X connect 6 3 34 0;
#X connect 6 4 30 0;
#X connect 6 4 35 0;
#X connect 14 0 13 0;
#X connect 15 0 14 0;
#X connect 16 0 15 0;
#X connect 22 0 23 0;
#X connect 23 0 25 0;
#X connect 23 1 24 0;
#X connect 24 0 16 1;
#X connect 24 0 26 1;
#X connect 25 0 16 1;
#X connect 25 0 26 1;
#X connect 26 0 15 1;
#X connect 27 0 16 0;
#X connect 28 0 16 0;
#X connect 29 0 16 0;
#X connect 30 0 16 0;
#X connect 31 0 26 0;
#X connect 32 0 26 0;
#X connect 33 0 26 0;
#X connect 34 0 26 0;
#X connect 35 0 26 0;
#X connect 36 0 16 0;
#X restore 315 -459 pd vowels;
#X obj 265 -507 hradio 20 1 0 5 empty vowel_init empty 0 -6 0 8 -260818
-1 -1 0;
#X text 270 -506 A;
#X text 290 -506 E;
#X text 311 -506 I;
#X text 330 -506 O;
#X text 351 -506 U;
#X obj 389 -506 hradio 20 1 0 2 empty bangstop_init empty 0 -6 0 8
-262130 -1 -1 0;
#X text 450 -505 <-- Permette di sintetizzare singolarmente le vocali
;
#X obj 327 -482 inlet;
#X obj 402 -477 inlet;
#X connect 0 0 1 0;
#X connect 1 0 8 0;
#X connect 2 0 4 1;
#X connect 4 0 0 0;
#X connect 5 0 4 0;
#X connect 7 0 8 1;
#X connect 7 1 8 3;
#X connect 8 0 10 0;
#X connect 10 0 9 0;
#X connect 10 0 9 1;
#X connect 11 0 10 1;
#X connect 12 0 7 0;
#X connect 12 1 7 3;
#X connect 18 0 12 0;
#X connect 19 0 18 0;
#X connect 25 0 18 1;
