#N canvas 0 22 668 406 10;
#X obj 127 232 osc~;
#X obj 127 207 mtof;
#X obj 127 132 loadbang;
#X obj 53 274 *~;
#X msg 53 208 \$1 50;
#X obj 53 233 line~;
#X obj 52 335 dac~;
#X obj 127 182 + 30;
#X obj 127 158 random 60;
#X obj 124 72 inlet;
#X msg 124 96 0;
#X obj 53 182 min 0.1;
#X obj 53 129 * 0.03;
#X obj 53 300 *~ 0.3;
#X obj 52 99 inlet;
#X connect 0 0 3 1;
#X connect 1 0 0 0;
#X connect 2 0 8 0;
#X connect 3 0 13 0;
#X connect 4 0 5 0;
#X connect 5 0 3 0;
#X connect 7 0 1 0;
#X connect 8 0 7 0;
#X connect 9 0 10 0;
#X connect 10 0 11 1;
#X connect 11 0 4 0;
#X connect 12 0 11 0;
#X connect 13 0 6 1;
#X connect 13 0 6 0;
#X connect 14 0 12 0;
