#N canvas 369 185 450 300 10;
#X declare -lib mapping;
#X obj 353 4 import mapping;
#X floatatom 33 52 5 0 0 0 - - -;
#X obj 82 177 hsl 128 15 0 1 0 0 empty empty empty -2 -6 0 8 -262144
-1 -1 0 1;
#X obj 252 79 tgl 15 1 empty empty empty 0 -6 0 8 -262144 -1 -1 1 1
;
#X obj 167 126 pack float float;
#X msg 89 40 save;
#X msg 167 147 set load \$1 \$2;
#X msg 102 70 load 1 11;
#X msg 275 78 bang;
#X obj 79 103 autoscale 0 1 ______________;
#X obj 31 23 inlet;
#X obj 78 208 outlet;
#X floatatom 152 41 5 0 0 0 - - -;
#X floatatom 201 41 5 0 0 0 - - -;
#X obj 150 16 inlet;
#X obj 200 14 inlet;
#X connect 1 0 9 0;
#X connect 2 0 11 0;
#X connect 3 0 9 3;
#X connect 4 0 6 0;
#X connect 5 0 9 0;
#X connect 6 0 7 0;
#X connect 7 0 9 0;
#X connect 8 0 9 3;
#X connect 9 0 2 0;
#X connect 9 1 4 0;
#X connect 9 2 4 1;
#X connect 10 0 1 0;
#X connect 12 0 9 1;
#X connect 13 0 9 2;
#X connect 14 0 12 0;
#X connect 15 0 13 0;
