#N canvas 0 22 450 300 10;
#X obj 22 80 cputime;
#X obj 94 80 realtime;
#X floatatom 22 109 5 0 0 0 - - -;
#X floatatom 94 109 5 0 0 0 - - -;
#X msg 22 48 0;
#X msg 94 48 1;
#X obj 22 22 bng 15 250 50 0 empty empty cpu_time 17 7 0 10 -262144
-1 -1;
#X obj 94 22 bng 15 250 50 0 empty empty real_time 17 7 0 10 -262144
-1 -1;
#X connect 0 0 2 0;
#X connect 1 0 3 0;
#X connect 4 0 0 1;
#X connect 4 0 1 1;
#X connect 5 0 0 1;
#X connect 5 0 1 1;
#X connect 6 0 4 0;
#X connect 7 0 5 0;
