#N canvas 0 22 103 340 10;
#X floatatom 21 278 0 0 0 0 - - -;
#X obj 21 84 * 0.5;
#X obj 21 138 vsl 15 128 0 1023 0 0 empty empty empty 0 -9 0 10 -262144
-1 -1 0 1;
#X floatatom 21 34 5 0 0 0 - - -;
#X obj 21 10 inlet;
#X obj 21 300 outlet;
#X obj 21 59 - 512;
#X obj 21 109 + 512;
#X connect 0 0 5 0;
#X connect 1 0 7 0;
#X connect 2 0 0 0;
#X connect 3 0 6 0;
#X connect 4 0 3 0;
#X connect 6 0 1 0;
#X connect 7 0 2 0;
