#N canvas 0 22 450 300 10;
#X text 51 318 opposite;
#X floatatom 17 248 0 0 0 0 - - -;
#X obj 17 85 * -1;
#X obj 17 111 vsl 15 128 0 1023 0 0 empty empty empty 0 -9 0 10 -262144
-1 -1 0 1;
#X floatatom 17 38 5 0 0 0 - - -;
#X obj 17 13 inlet;
#X obj 17 273 outlet;
#X obj 17 61 - 1024;
#X connect 1 0 6 0;
#X connect 2 0 3 0;
#X connect 3 0 1 0;
#X connect 4 0 7 0;
#X connect 5 0 4 0;
#X connect 7 0 2 0;
