#N canvas 0 22 203 273 10;
#X obj 72 90 autoscale;
#X floatatom 72 117 5 0 0 0 - - -;
#X msg 87 49 0;
#X msg 128 50 1;
#X floatatom 72 163 5 0 0 0 - - -;
#X obj 72 140 - 0.05;
#X obj 87 16 loadbang;
#X obj 37 49 inlet;
#X obj 72 188 outlet;
#X connect 0 0 1 0;
#X connect 1 0 5 0;
#X connect 2 0 0 1;
#X connect 3 0 0 2;
#X connect 4 0 8 0;
#X connect 5 0 4 0;
#X connect 6 0 2 0;
#X connect 6 0 3 0;
#X connect 7 0 0 0;
