#N canvas 84 146 775 319 10;
#X text 528 -115 Effect Bypass;
#X obj 326 -82 *~ 1;
#X obj 438 -85 == 0;
#X obj 438 -112 |;
#X obj 472 -112 |;
#X obj 431 -161 inlet;
#X obj 474 -161 inlet;
#X obj 326 -167 inlet~;
#X obj 326 -53 s~;
#X obj 341 -129 s~ signal_in;
#X connect 1 0 8 0;
#X connect 2 0 1 1;
#X connect 3 0 2 0;
#X connect 4 0 2 0;
#X connect 5 0 3 1;
#X connect 5 0 4 0;
#X connect 6 0 3 0;
#X connect 6 0 4 1;
#X connect 7 0 1 0;
#X connect 7 0 9 0;
