#N canvas 0 22 683 787 10;
#X obj -127 -24 f;
#X obj -97 -24 + 1;
#X obj -126 46 hradio 15 1 0 18 empty empty Samples_selctor 0 -8 0
10 -262144 -1 -1 0;
#X obj -127 -43 bng 15 250 50 0 empty empty empty 17 7 0 10 -262144
-1 -1;
#X floatatom -163 -23 5 0 0 0 - - -;
#X obj -127 -137 r lost;
#X obj -127 253 outlet;
#X obj -111 275 outlet;
#X obj -79 316 outlet;
#X obj -95 296 outlet;
#X obj -62 338 outlet;
#X obj -46 360 outlet;
#X obj -30 383 outlet;
#X obj -13 403 outlet;
#X obj 3 423 outlet;
#X obj 36 462 outlet;
#X obj 19 443 outlet;
#X obj -173 -164 cnv 15 120 20 empty empty empty 20 12 0 14 -228856
-66577 0;
#X text -166 -163 sample selector;
#X obj 52 482 outlet;
#X obj 68 502 outlet;
#X obj 85 522 outlet;
#X obj 117 563 outlet;
#X obj 101 543 outlet;
#X obj 134 583 outlet;
#X obj -97 0 mod 18;
#X obj -127 71 select 0 1 2 3 4 5 6 7 8 9 10 11 12 13 14 15 16;
#X obj 156 602 outlet;
#X obj -127 -100 del 1000;
#X text 171 103 <--------------- subsititute with audio samples;
#X text 169 65 <--------------- adjust according to audio samples;
#X msg -127 105 .wav;
#X msg -111 126 .wav;
#X msg -95 147 .wav;
#X msg -79 169 .wav;
#X msg -62 189 .wav;
#X msg -46 209 .wav;
#X msg -30 229 .wav;
#X msg -13 249 .wav;
#X msg 3 270 .wav;
#X msg 19 289 .wav;
#X msg 36 309 .wav;
#X msg 52 329 .wav;
#X msg 68 346 .wav;
#X msg 85 367 .wav;
#X msg 101 387 .wav;
#X msg 117 407 .wav;
#X msg 134 428 .wav;
#X msg 156 447 .wav;
#X connect 0 0 1 0;
#X connect 0 0 4 0;
#X connect 0 0 2 0;
#X connect 1 0 25 0;
#X connect 2 0 26 0;
#X connect 3 0 0 0;
#X connect 5 0 28 0;
#X connect 25 0 0 1;
#X connect 26 0 31 0;
#X connect 26 1 32 0;
#X connect 26 2 33 0;
#X connect 26 3 34 0;
#X connect 26 4 35 0;
#X connect 26 5 36 0;
#X connect 26 6 37 0;
#X connect 26 7 38 0;
#X connect 26 8 39 0;
#X connect 26 9 40 0;
#X connect 26 10 41 0;
#X connect 26 11 42 0;
#X connect 26 12 43 0;
#X connect 26 13 44 0;
#X connect 26 14 45 0;
#X connect 26 15 46 0;
#X connect 26 16 47 0;
#X connect 26 17 48 0;
#X connect 28 0 3 0;
#X connect 31 0 6 0;
#X connect 32 0 7 0;
#X connect 33 0 9 0;
#X connect 34 0 8 0;
#X connect 35 0 10 0;
#X connect 36 0 11 0;
#X connect 37 0 12 0;
#X connect 38 0 13 0;
#X connect 39 0 14 0;
#X connect 40 0 16 0;
#X connect 41 0 15 0;
#X connect 42 0 19 0;
#X connect 43 0 20 0;
#X connect 44 0 21 0;
#X connect 45 0 23 0;
#X connect 46 0 22 0;
#X connect 47 0 24 0;
#X connect 48 0 27 0;
