#N canvas 0 22 509 441 10;
#X obj 76 60 inlet;
#X obj 197 61 inlet;
#X obj 306 60 inlet;
#X obj 128 111 -;
#X obj 259 114 -;
#X obj 190 156 /;
#X obj 141 198 moses 0;
#X obj 192 237 moses 1;
#X obj 192 302 outlet;
#X floatatom 227 187 5 0 0 0 - - -;
#X floatatom 251 301 5 0 0 0 - - -;
#X msg 141 237 0;
#X msg 243 268 1;
#X text 74 34 to map;
#X text 195 36 min;
#X text 304 35 max;
#X connect 0 0 3 0;
#X connect 1 0 3 1;
#X connect 1 0 4 1;
#X connect 2 0 4 0;
#X connect 3 0 5 0;
#X connect 4 0 5 1;
#X connect 5 0 6 0;
#X connect 5 0 9 0;
#X connect 6 0 11 0;
#X connect 6 1 7 0;
#X connect 7 0 8 0;
#X connect 7 0 10 0;
#X connect 7 1 12 0;
#X connect 11 0 8 0;
#X connect 12 0 8 0;
